<?xml version="1.0" encoding="utf-8"?>
<!-- Generator: Adobe Illustrator 22.0.1, SVG Export Plug-In . SVG Version: 6.00 Build 0)  -->
<svg version="1.1" xmlns="http://www.w3.org/2000/svg" xmlns:xlink="http://www.w3.org/1999/xlink" x="0px" y="0px"
	 viewBox="0 0 1000 1412" style="enable-background:new 0 0 1000 1412;" xml:space="preserve">
<style type="text/css">
	.st0{fill:#030303;}
	.st1{fill:#040404;}
	.st2{fill:#BEBFC0;}
	.st3{fill:#E0E1E1;}
	.st4{fill:#6F6F6F;}
	.st5{fill:#4F4F4F;}
	.st6{fill:#787878;}
	.st7{fill:#727272;}
	.st8{fill:#7E7E7E;}
	.st9{fill:#656565;}
	.st10{fill:#525252;}
	.st11{fill:#010101;}
	.st12{fill:#FDFDFD;}
	.st13{fill:#FCFCFC;}
	.st14{fill:#FBFBFB;}
	.st15{fill:#666666;}
	.st16{fill:#505050;}
	.st17{fill:#717171;}
	.st18{fill:#C9C9CA;}
	.st19{fill:#737373;}
	.st20{fill:#828282;}
	.st21{fill:#808080;}
	.st22{fill:#757575;}
	.st23{fill:#777777;}
	.st24{fill:#767676;}
	.st25{fill:#747474;}
	.st26{fill:#5B5B5B;}
	.st27{fill:#5C5C5C;}
	.st28{fill:#7B7B7B;}
	.st29{fill:#5A5A5A;}
	.st30{fill:#5F5F5F;}
	.st31{fill:#616161;}
	.st32{fill:#7A7A7A;}
	.st33{fill:#7D7D7D;}
	.st34{fill:#515151;}
	.st35{fill:#555555;}
	.st36{fill:#4B4B4B;}
	.st37{fill:#606060;}
	.st38{fill:#595959;}
	.st39{fill:#5D5D5D;}
	.st40{fill:#7C7C7C;}
	.st41{fill:#797979;}
	.st42{fill:#565656;}
	.st43{fill:#545454;}
	.st44{fill:#4D4D4D;}
	.st45{fill:#585858;}
	.st46{fill:#818181;}
	.st47{fill:#5E5E5E;}
	.st48{fill:#575757;}
	.st49{fill:#636363;}
	.st50{fill:#9EE7FE;}
	.st51{fill:#FEFEFE;}
	.st52{fill:#001D38;}
	.st53{fill:#9FE7FE;}
	.st54{fill:#A2E8FE;}
	.st55{fill:#A1E8FE;}
	.st56{fill:#00B0FE;}
	.st57{fill:#021730;}
	.st58{fill:#0C547C;}
	.st59{fill:#001731;}
	.st60{fill:#00132B;}
	.st61{fill:#00152F;}
	.st62{fill:#003E6D;}
	.st63{fill:#003D66;}
	.st64{fill:#FCFDFD;}
	.st65{fill:#0EBDFE;}
	.st66{fill:#003662;}
</style>
<g id="Layer_1">
</g>
<g id="Layer_2">
	<g>
		<path class="st0" d="M645.1,1138.5c-12.3-0.6-27.8-1-36.7-2.4c-75.4-11.7-142.6-42.5-202.9-88.5c-56.5-43.1-99.4-97.2-126.7-163.2
			c-0.5-1.2-1.2-2.4-2-3.9c-2.4,2-1.4,4.4-1.4,6.3c-0.1,34.6-0.1,69.2-0.1,103.8c0,7.1-1.4,13.4-7.7,17.7
			c-7.7,5.2-15.8,3.9-24.1-4.5c-23.9-24.2-47.8-48.5-71.6-72.7c-12-12.2-24.1-24.4-36.1-36.7c-9.4-9.7-11.7-20.4-6.8-30.7
			c4.9-10.3,14.4-15.1,28.1-14.3c11.8,0.7,23.6,0.8,35.1-2.6c12.7-3.8,16.4-8.2,17.7-21.3c2.6-25.5,2.3-51.1,1.3-76.7
			c-3.6-4.4-8.7-6.7-13.2-9.8c-3.5-2.3-6.7-4.8-8.7-8.5c-16.7-17-27.5-37.1-28.5-61.2c-2.3-55.1,38.7-97.4,93.9-96.5
			c9.2,0.1,15.2-2.9,20.9-9.7c20.4-23.9,40.8-48,65.5-67.8c102.4-82.4,243.1-75.4,339.5,16.8c16.1,15.4,30.8,32,44.9,49.2
			c6.6,8.1,14.1,12,25.3,11.5c66.1-2.5,113,72.9,81.7,131.3c-17.4,32.6-44,50.9-82.1,50.2c-11.7-0.2-20.2,5.7-27.3,14.4
			c-17.1,20.9-35.1,41.1-55.8,58.5c-74.8,63.1-159.3,75.8-251.2,47.7c-17.1-5.2-32.8-14-48.4-22.9c-2.7-1.1-5.6-2-8.1-3.8
			c1.4,4.2,2.4,8.2,3.5,12.1c12.1,28,29.2,52.8,49.5,75.2c30.6,33.8,66.4,61.2,107.4,81.6c28.2,14,57.5,24.7,88.8,29
			c15,0.9,29.6,4.8,44.8,3.8c34.8-2.4,69.6-4.3,99.8-25c22.3-15.3,35.2-52.4,21.1-79.7c-12.1-23.4-33.3-32.9-58.9-25.1
			c-1.1,0.3-2.2,0.4-3.3,0.2c-10.4,6.9-14.2,17.2-15.3,29.1c-1.9,19.9-14.4,34.6-32.7,39.2c-27.2,6.7-52.5-13.3-53.4-42.2
			c-1.6-54,41.8-107.5,95.8-118.2c68.9-13.6,140.4,33.5,157.6,104.6c15.8,65.4-9.9,151.7-93.6,184c-30.6,11.8-61.8,20.3-94.6,21.8"
			/>
		<path class="st0" d="M96.6,492.2c2.2-4.4,4.1-9.1,6.7-13.3c9.1-14.5,22.4-21.8,39.4-22c23.1-0.3,46.1-0.3,69.2,0.1
			c7.6,0.1,13.4-2.2,18.9-7.3c24.2-22.3,47.5-45.5,74.2-65c114-83.1,268.2-77.3,369.5-15.7c36.1,22,66.4,51,96.8,79.7
			c5.9,5.6,12.1,8.5,20.2,8.3c21.4-0.3,42.7-0.2,64.1-0.2c26.6,0,41.5,10.9,49.9,36.3c0.1,0.3,0.9,0.5,1.3,0.7c0,7.9,0,15.8,0,23.6
			c-2.5,0.3-2.6,2.6-3.4,4.3c-8,17.4-21.8,27.7-40.7,28.3c-30.9,0.9-61.9,0.9-92.7-0.1c-22.4-0.7-40.3-12.8-56.4-27.4
			c-16.7-15.1-33-30.6-50-45.3c-50-43.3-107.8-64.7-174.3-60.8c-62.5,3.6-116.5,26.9-161.6,70.6c-13.5,13.1-27.4,25.9-41.5,38.3
			c-20.8,18.2-44.9,26.8-72.8,25.4c-19.6-1-39.4-1.1-59-0.1c-27.6,1.4-47.4-8.5-57.8-34.8C96.6,507.9,96.6,500,96.6,492.2z"/>
		<path class="st0" d="M446,296.4c4.1,2.8,8.5,5.4,7,11.7c-1.5,6.3-6.6,7.2-11.6,7.9c-21.4,3-42.6,7.3-63.1,14.3
			c-23,7.8-44.5,18.6-63.9,33.3c-1.6,1.2-3.1,2.5-4.8,3.4c-4.6,2.2-8.9,1.6-12.1-2.4c-3.2-4.1-2.9-8.7,0.7-12.3
			c3.3-3.4,7.3-6.1,11.2-8.8c33.2-23.4,70.6-36.3,110.2-43.6c3.5-0.6,7-0.6,9.5-3.5C434.7,296.4,440.4,296.4,446,296.4z"/>
		<path class="st0" d="M303.4,985.3c0,9.5,1,19.2-0.2,28.6c-3.4,27.3-31.2,42.1-56.2,30.5c-5.7-2.6-10.8-6.1-15.2-10.5
			c-15.6-15.7-31.2-31.6-46.6-47.5c-4.4-4.6-7.3-10-1.5-15.4c5.7-5.4,10.9-2.3,15.4,2.3c13,13.3,25.9,26.6,38.7,39.9
			c5.1,5.3,10.3,10.4,17.1,13.5c14.7,6.7,28.7-1.3,29.5-17.4c0.7-13.7,0.2-27.5,0.3-41.3c0-2.8-0.1-5.6,0.1-8.4
			c0.3-6,2.7-10.7,9.3-10.9c7.2-0.1,9.5,5.1,9.7,11.3c0.2,8.4,0.1,16.9,0.1,25.3C303.7,985.3,303.5,985.3,303.4,985.3z"/>
		<path class="st0" d="M763.1,980.4c6.4,5.5,5.1,11,0.2,16.7c-22,25.9-50.9,37.7-83.7,41.5c-13.1,1.5-26.3,1-39.5,0.6
			c-6.3-1.2-12.5-2.5-18.8-3.5c-5.7-0.9-8.6-4.4-8.1-9.8c0.5-5.7,3.8-9.2,10.1-8.8c10.3,0.8,20.4,3.1,30.8,3.4
			c24.8,0.7,48.7-3.2,70.5-15.4c10.7-6,20.5-13.7,27.2-24.5C755.5,977.5,759.3,977.9,763.1,980.4z"/>
		<path class="st1" d="M871.3,694.3c-1.8,11.4-5.6,22.8-11.2,33.6c-15.8,30.8-40.9,49.1-74.9,55.4c-6.5,1.2-12.2,0.7-14.1-6.6
			c-1.9-7.7,3.3-10.6,9.7-11.8c39.8-7.9,62.3-33,71.4-71.4c1.4-6,4-10.9,11.1-10C869,684.1,871.2,688.3,871.3,694.3z"/>
		<path class="st1" d="M497.1,921.1c-9.8-0.3-19.7,0.1-29.4-1.6c-6.1-1.1-10.2-4.1-9.5-10.6c0.7-6.6,5.5-8.8,11.6-8.2
			c37.1,3.9,73.4-1.2,109.5-9.9c6.3-1.5,11.7,0.4,13,7.2c1.2,6.6-3,10.6-9.2,11.9C554.7,916,526.3,921.6,497.1,921.1z"/>
		<path class="st1" d="M196.8,781.9c-0.9,9.8,0.2,18.8-2.1,27.6c-4.2,15.6-21.2,26.4-37,23.3c-5-1-8.2-4-8.3-9.1
			c-0.1-5,2.8-8.1,7.9-9.4c20.1-5.2,20.1-5.3,20.3-26c0.1-8.4,0.1-16.8,0.2-25.2c0.1-6.1,2.8-10.5,9.3-10.8
			c6.6-0.2,9.5,4.2,9.7,10.3C197,769.3,196.8,776.1,196.8,781.9z"/>
		<path class="st1" d="M146.9,627.5c-6.9,0-11.6-6-8.9-12.7c9.5-23.9,23.8-43.7,48.6-54c6.2-2.6,12.6-3.6,15.7,3.9
			c3,7.3-1.8,11-8.4,13.7c-18.2,7.5-28.7,22.5-36.7,39.7C155.1,622.7,153.5,627.9,146.9,627.5z"/>
		<path class="st1" d="M833.4,563c8.4,0,16.8-0.1,25.2,0c5.9,0.1,10.8,2.4,10.9,9.1c0.2,7.2-4.7,9.7-11.1,9.7
			c-16.5,0.1-33.1,0.1-49.6,0c-6.1,0-10.6-2.3-10.8-9.1c-0.2-7.2,4.4-9.7,10.9-9.8C817.1,563,825.3,563,833.4,563z"/>
		<path class="st1" d="M718.6,816.7c-7.1-0.6-11.6-8.7-7.1-14.2c8.3-10.2,17.3-19.9,26.4-29.5c3.7-3.8,8.3-3,12.1,0.5
			c3.7,3.5,4.9,8,1.4,12c-8.6,10-17.7,19.6-26.6,29.3C723.1,816.7,720.9,816.8,718.6,816.7z"/>
		<path class="st2" d="M363.2,860.2c-3.2-4.8-5.7-9.9-6.9-16.8c4.9,2.7,8.8,4.8,11.5,8.5C366,854.5,363.5,856.7,363.2,860.2z"/>
		<path class="st3" d="M763.1,980.4c-3.8-1.2-7.6-1.2-11.3,0.2c1-1.9,2.1-3.9,3.1-5.8C758.4,975.6,761.2,977.4,763.1,980.4z"/>
		<path class="st4" d="M513.2,869.2c-2.9,1.8-6.1,2.5-9.6,2.5c-56.2-0.6-107.3-16.6-150.9-52.6c-25.3-20.9-47.6-44.9-67.9-70.8
			c-6.3-8.1-14.3-13.1-25.4-11.8c-21.4,2.5-40.2-3.3-56.6-17.7c-12-10.6-19.9-23.6-22.9-38.8c-5.5-27.7,2.1-51.9,22.8-71.4
			c12.5-11.8,27.9-17,44.8-18.2c3.1-0.2,6.3-0.5,9.3,0.1c13.8,2.6,22.9-4.6,30.8-14.5c14.2-17.7,29.2-34.7,45.5-50.5
			c35.8-34.5,77.3-58.8,126.9-66.3c31.8-4.8,63.7-4.4,95.5,2.7c40.6,9.1,74.8,29.1,105.9,56.1c20.8,18.1,38,39.4,56,60
			c8.6,9.8,18.2,13.6,30.9,12.6c23-1.9,42.6,6.4,57.6,23.6c25.3,28.9,26.1,69.1,0.3,98.5c-14.7,16.8-33.8,26.3-56.5,23.8
			c-17.6-1.9-27.8,7-37.9,19.4c-30,36.8-62.7,71-106.2,92c-21.6,10.4-44.1,18.6-68.5,20.6c-7.2,0.6-14.3,2.1-21.6,0.7
			c1.5-2.8,4.2-1,6.2-1.6C518.9,868.2,515.7,866.6,513.2,869.2z"/>
		<path class="st4" d="M641.9,1120.6c-37.9-2.3-75-8.3-110.9-21.6c-42.2-15.7-80.8-37.7-116.2-65.4c-34.4-26.9-63.7-58.4-87.9-94.8
			c-26.8-40.3-44.5-84.2-50.8-132.3c-1.5-11.6-3-23.4-1.9-35.2c0.2-1.8-0.9-4.2,1.6-5.1c2-0.8,4.1-0.3,5.3,1.5
			c15.3,22.8,40.8,37.1,52.5,62.8c6,13.2,8.5,27.6,15.2,40.7c13.4,26,29.7,49.7,48.7,71.9c31.1,36.4,68.4,64.7,110.6,87
			c34.1,18.1,70.1,29.5,108.4,34.8c20.1,2.8,40.3,4.3,60.2,2.7c32.6-2.7,64.9-8.4,91.5-29.9c18.5-14.9,28.7-34.4,30.8-58.1
			c1.7-19.6-1.4-38.2-13.7-54.1c-16-20.8-37.5-32-63.6-28.1c-20.3,3.1-38.7,20.4-41.6,46.6c-1.2,10.6-3.5,20.9-14.9,25.3
			c-17.5,6.6-36.6-2.1-36.9-22.8c-0.6-49.5,37.9-94.1,86-101.6c65.6-10.3,127.2,40.2,134.8,103.5c5.8,48.2-5.7,90.6-40.9,124.7
			c-23.2,22.5-52,35.3-83.6,41.4c-26.7,5.1-53.5,8.5-80.7,6c9.5-3.7,19.1-2.4,28.8-1.4C662.5,1118,652.1,1117.4,641.9,1120.6z"/>
		<path class="st4" d="M250.1,983.4c-19.9-17.7-38-37.3-56.7-56.3c-14.2-14.3-28.1-28.9-42.2-43.4c-3.4-3.4-7.7-6.7-5.2-12.1
			c2.4-5.5,7.8-4.3,12.5-4.4c9-0.2,18,0,26.8-1c14.6-1.6,27.5-7.1,37.7-18c6.4-3.4,6.8-10,7.6-15.9c0.6-4.7,1.4-9.3,2-14
			c0-8.1,0-16.2,0-24.3c0,8.3,0,16.6,0,24.9c-2.1,6.6-1.1,13.8-3.4,20.4c-0.8,2.4-0.3,5.8-4.4,5.7c6.8-27.3,5.4-55.1,5.2-82.9
			c-0.1-10,1.1-11.7,10.9-9.3c4.9,1.2,10.2-0.4,14.8,2.4c0.5,1,0.7,2.1,0.7,3.2c-0.5,70-0.1,140-0.2,209.9c0,3.7,0.3,7.3-0.4,10.9
			C255,982.1,254.2,985.1,250.1,983.4z"/>
		<path class="st5" d="M255.3,757.2c0.1-0.7,0.1-1.3,0.2-2c0.6,0,1.1,0.1,1.6,0.3c1.1,2.1,0.7,4.4,0.7,6.6c0,72.6,0,145.3,0,217.9
			c0,2.2,0.4,4.5-0.6,6.6c-2.8,3.2-4.4,1.8-5.6-1.4c4.2-2.3,2.8-6.4,2.8-9.8c0.1-69.7,0-139.5,0.1-209.2
			C254.5,763.2,253.7,760.1,255.3,757.2z"/>
		<path class="st6" d="M255.3,757.2c0,73.8,0,147.7-0.2,221.5c0,2,3.5,7.6-3.5,6.6c-0.5-0.6-1-1.3-1.4-1.9c5.6-1.3,3.3-5.8,3.4-9
			c0.1-69.2,0.1-138.5,0.2-207.7C253.6,763.5,252.3,759.9,255.3,757.2z"/>
		<path d="M257.1,986.6c0-77.1-0.1-154.1-0.1-231.2c2.6,2.6,1.5,5.9,1.5,8.8c0.1,71.2,0.1,142.3,0,213.5
			C258.6,980.8,259.6,984,257.1,986.6z"/>
		<path class="st7" d="M641.9,1120.6c10.9-6,22.2-4.3,33.4-2.1c0,0.7,0,1.4,0,2.1c-10.4,0-20.9,0-31.3,0
			C643.3,1120.7,642.6,1120.7,641.9,1120.6z"/>
		<path class="st4" d="M233.3,819.6c-1.2,7.1-2.1,14.3-3.6,21.3c-0.7,3.5-1.9,7.2-6.7,7.3c0.5-1.1,1.1-2.2,1.6-3.3
			c4.8-4.2,4.5-10.3,5.2-15.8c0.4-3.2,0-6.6,1.8-9.5C232.2,818.9,232.7,818.9,233.3,819.6z"/>
		<path class="st8" d="M513.2,869.2c-0.1-0.8-3.7-1.8-0.2-2.2c4-0.5,8.1-0.1,12.2,1c-3.2,0.4-6.4,0.8-9.7,1.3
			C514.8,869.3,514,869.3,513.2,869.2z"/>
		<path class="st1" d="M174.2,444.5c-10.1,0-20.2,0.1-30.4,0c-6.6-0.1-13-1.4-13.1-9.6c-0.1-8.2,6.1-9.8,12.9-9.9
			c18.8-0.1,37.7-0.4,56.5,0c7.1,0.2,12.2-1.9,17-6.9c12-12.3,25.4-23.1,38.5-34.1c5.1-4.3,10.7-7.7,16.1-1.3
			c5.4,6.3,1.5,11.3-3.5,15.8c-14.3,12.6-28.7,25.3-42.9,38c-6.2,5.5-13.4,8-21.6,7.9C193.9,444.5,184,444.5,174.2,444.5z"/>
		<path class="st4" d="M763.3,531c-14.7-2.2-26.1-10.7-37.1-19.9c-21.8-18.3-41.2-39.5-63.7-57.1c-32.2-25.2-67.5-43.2-108.1-50.2
			c-0.8-0.1-1.4-0.8-2.1-1.2c-10.1-2.3-20.4-2.8-30.6-4.5c-12.5-1.1-25-0.6-37.5-0.3c-32.1,3.3-63.6,9.1-93,23.1
			c-19.8,9.4-38.2,21.1-55.2,35c-1.5,1.2-2.8,2.8-4.8,3.4c-4.2,1.7-8,3.9-9.6,8.6c-1.9,3.5-5.8,4.5-8.5,6.9
			c-3.3,1.2-5.2,3.8-6.6,6.8c-17.8,16.2-33.3,35.3-56.3,45.2c-3.8,1.6-7.9,2.6-11.7,4.2c-31.9-0.1-63.9-0.5-95.8,0.2
			c-11.5,0.3-19.4-4-25-13.3c-9.6-15.8-1.2-36.3,16.5-40.7c3.2-0.8,6.2-2.7,9.7-2.3c21.2,0.6,42.4,0.3,63.6,0.2
			c2.7-0.8,5.5-1.1,8.2-0.6c8,1.6,14.5-1.5,20.5-6.2c4.6-0.9,8.1-3.1,9.6-7.8c6.4-6.5,13.5-12.3,20.2-18.5c4.1-2.1,7.6-4.7,9.2-9.3
			c13.9-12.2,27.8-24.4,43-35c25.2-17.5,52.1-31.9,81.3-41c23.4-7.2,47.4-13,72.1-13.8c3.7-0.1,7-1.5,10.6-1.7c3.3,1.1,6.7,0.9,10,0
			c6.9,1,13.9,0.5,20.9,0.4c17.9-0.1,35.5,1.8,52.8,6.6c5.4,1.5,11,1.8,16.5,2.9c18.2,3.6,35.1,10.8,52,18.4
			c22.7,10.3,44.1,22.9,63.7,38.4c15.4,12.1,30.2,24.8,44,38.7c7.1,7.1,14.9,13.6,22.2,20.4c5.3,4.9,12,8,19.8,7.6
			c5.8-0.3,11.8-0.8,17.6,0.5c14.9,0.2,29.8,0.5,44.7-0.1c3.7-1,7.3-0.6,10.8,1c3.4,1.7,7,0.8,10.6,1.1c10.7,2.3,17,8.7,18.4,19.6
			c0.6,5.5,0.7,10.9-0.1,16.3c-3.5,10.4-13.4,18.7-23.2,18.7c-32.3,0.1-64.5,0.1-96.8,0.1C765.3,531.8,764.3,531.6,763.3,531z"/>
		<path class="st9" d="M267,443.2c-6.7,6.2-13.5,12.4-20.2,18.6c-2.4,2.8-3.9,6.7-8.4,6.8c-8.4,7.7-18.4,8.1-28.9,6.8
			c-21.9,1.2-43.7,1.2-65.6,0c-2.6,1.1-5.1,2.7-7.7,3.1c-13.8,1.9-19.7,11.1-20.5,23.6c-0.6,9.5,1.9,18.3,13.8,25.7
			c5.7,3.6,11.3,1.5,16.9,1.5c27.2,0.1,54.3,0.2,81.5-0.1c4.1,0,8.1,2.8,12.2,0.2c0.5,0.4,0.7,0.8,0.5,1.2c-0.2,0.4-0.4,0.6-0.6,0.6
			c-2.6,2.4-5.9,1.3-8.9,1.3c-28.7,0.1-57.3,0.1-86,0.1c-19.5,0-31.1-10-31.8-26.7c-0.8-20.2,11.8-31.3,31.7-31.8
			c23.6-0.7,47.2-0.6,70.8,0c9.5,0.3,17.1-3.1,23.6-9c15.6-14,30.6-28.7,46.4-42.7c40.8-36.2,87-61.9,140.8-73.8
			c31.7-7,63.7-9.8,95.8-7.7c39,2.5,77.4,9.5,112.6,28.2c0.6,0.4,0.8,0.7,0.6,1.1c-0.2,0.4-0.4,0.6-0.6,0.6
			c-16.3-5-31.1-14.3-48.3-16.9c-24.7-3.8-48.4-13.2-74.2-10.8c-6.5,0.6-14.2,1.5-21.2-0.8c-2.7,1-5.4,1-8.1,0
			c-11.5,1.6-23.2,2.5-34.6,5.1c-21.9,4.9-44.1,8.3-65.1,17.5c-13.5,5.9-26.9,11.8-39.8,19.1c-21.8,12.2-41.6,27.1-60.1,43.8
			c-2.7,2.4-5.4,4.9-8.1,7.3C273.4,438.3,270.3,440.8,267,443.2z"/>
		<path class="st10" d="M635.1,370.6c0-0.6,0-1.1,0-1.7c10.2,1.8,18.2,8.3,27,13c20.2,10.9,38.4,24.9,55.5,40.1
			c16.1,14.3,31.5,29.4,47.5,43.8c5.4,4.9,12,7.9,19.8,7.8c20.8-0.2,41.6-0.3,62.4-0.1c7.2,0.1,14.5,0.7,21.7,1.8
			c11.9,2,21.6,16.2,21,29.9c-0.6,13.2-12,26.9-24.2,27c-33.1,0.5-66.3,0.1-99.4,0.1c-0.9,0-1.9-1-2.8-1.5c32.3,0,64.7,0,97-0.1
			c12.2,0,22.2-7.5,24.6-18.4c1.4-5.7,1.4-11.4,0-17.2c-1.9-10-6.9-14.9-16.8-16.7c-3.2-2.1-7.1,0.4-10.2-1.6
			c-3.4-0.6-6.6-2.4-10.3-1.7c-15.7,1.3-31.4,1.2-47.1,0c-5.6,0-11.2-0.3-16.8,0c-8.1,0.4-14.9-2.9-20.6-8
			c-15.4-13.8-30.2-28.3-45.6-42c-21.9-19.5-45.3-36.9-72.3-48.9C641.7,374.8,638.4,372.6,635.1,370.6z"/>
		<path class="st5" d="M240.1,531.1c0-0.6,0-1.2,0-1.7c12.1-3.8,23.1-9.5,32.7-18c11.3-10,22.8-19.7,33.1-30.8
			c1.5-3.1,3.9-5.3,6.8-6.9c2.7-2.3,6.4-3.4,8.4-6.7c2-3.7,5.1-6.2,8.5-8.5c5-0.4,7.5-4.8,10.9-7.5c25.7-20,54-34.7,85.1-43.9
			c18.8-5.6,38.2-7.6,57.6-9.5c12.9-1.2,25.7-1.2,38.6,0c10.2,1.5,20.7,1.2,30.5,5.1c-19.7-2.1-39.4-3.9-59.3-3.4
			c-59.1,1.3-111.1,21.1-156.8,58.3c-20,16.3-37.9,34.8-57.1,51.9C267.8,519.6,255.5,528.2,240.1,531.1z"/>
		<path class="st11" d="M269.9,638.7c22.8,3.1,38.3-10.8,53.1-27.7c30.2-34.5,59.1-70.5,102.6-89.8c30.6-13.6,62.1-17.9,95.5-14.7
			c35.4,3.4,66.3,16.3,94.1,37.7c19.1,14.8,34.8,33,50.9,51c13.8,15.5,25.6,33.7,46.3,41.5c11.4,4.3,23.4,1.3,35,1.9
			c6.9,0.4,13,2,18.5,6.5c7.7,6.3,11.2,18,7.8,26.3c-3.7,9.3-13.6,16.6-24,16.9c-10.1,0.3-20.4-0.9-30.3,0.6
			c-15.7,2.4-26.5,12.9-36.9,24.5c-25.8,29-49.5,60.3-83.3,80.9C572,811,542.4,820.7,510,821.9c-29.6,1.1-57.9-4-84.8-15.9
			c-16.8-7.4-32.6-17.2-46.1-30c-22.2-21-42-44.2-62.3-67c-11.8-13.3-26.5-22-45.6-20.9c-8,0.5-16.2,1.5-24.2-1.2
			c-13-4.3-20.8-15-19-26.7c1.7-10.8,14.1-21.1,25.8-21.5C258.5,638.6,263.3,638.7,269.9,638.7z"/>
		<path class="st12" d="M499.4,470.3c1.4-1,2.7-1.9,4.1-2.9c5.6-2.6,11.2-1.6,16.9-0.5c19.9,4.1,39.9,7.5,58.9,15.4
			c21.7,9,41.7,20.4,59.9,35.3c1,0.8,2.5,1.2,3.7,1.8c2.6,0.9,4.8,2.1,5.2,5.2c6.7,7.4,15.3,13,21,21.4c0.4,7.5-4.6,13.1-12.3,14
			c-7.1-4-12-10.4-17.8-15.8c-14.1-13.2-29.3-25.4-46.9-33.7c-9.1-4.3-17.8-9.5-27.7-12.3c-2.7-0.8-5.3-2-8.2-1.1
			c-2.5-0.9-5.3-1.4-7.3-3.4c-7.5-0.6-15-1.5-21.9-4.8c-2.8,0.9-5.6,1.4-8.4-0.2c-2.6-2.4-5.9-1.6-8.9-1.7
			c-7.6-0.3-11.9-4.1-12.9-11.6C497.2,473.4,497.9,471.7,499.4,470.3z"/>
		<path class="st13" d="M759.4,603.9c10.8,4,22.1,6.8,31.4,14.5c6.3,5.2,10.3,11.6,13.4,18.6c2.3,5.2,1.1,10-4.3,12.8
			c-6.3,3.2-11.9-0.1-13.8-4.9c-5.5-13.5-16.9-17.1-29.2-19.9c-5.7-1.3-12.2-1.1-14.8-8.1c-2.9-2.5-1.2-4.6,0.6-6.7
			c3.1-3.9,7-6.4,12.2-6.6C756.4,602.5,758,602.1,759.4,603.9z"/>
		<path class="st0" d="M249.3,723.8c-33.2-6.9-53.1-25.4-60-57.7c-1.1-5.1,2.2-8.3,6.1-9.9c3.8-1.6,7.1,0.9,8.6,4.7
			c2.2,5.7,4,11.5,6,17.3c5.2,14.9,16.8,22.3,31.2,26.4c3.8,1.1,7.5,2.3,11.2,3.3c4.7,1.4,7.3,4.3,6.2,9.3
			C257.5,722.6,252.4,722.4,249.3,723.8z"/>
		<path class="st14" d="M699.1,606.8c-6.2-8.5-15-14.6-21-23.4c-7.2-10.7-7.5-11.4,2.8-20.2c2.2-1.3,4.4-1.7,6.4,0.3l-0.4,0
			c3,0.7,4.7,2.6,5.3,5.5c4.9,5.6,9.8,11.2,14.7,16.7c7.4,8.2,7.2,13.3-1,21.2C703.6,608.7,701.4,607.3,699.1,606.8z"/>
		<path class="st15" d="M473,856.7c-0.6-0.5-1.2-1-1.8-1.5c-2.8,1-5.6,1.2-8.3-0.1l0,0c-2.5-2.1-5.9,0.3-8.4-1.7
			c-9.9-3.4-19.9-6.4-29.5-10.3c-5.2-2.1-11.2-4.3-11.1-12c0.1-8.3,5.6-13.1,13-9.6c14.9,7.2,30.7,10.2,46.8,12.5
			c6.9,1,14,0.7,20.9,1.5c5.4,0.7,10.8,2.2,12.1,8.6c1.2,5.7-2.4,9.4-6.6,12.6C491,858.1,482,858.1,473,856.7z"/>
		<path class="st16" d="M295.8,731.9c7.6-8.9,13.8-9.7,19.7-1.1c11.1,16.3,24.4,30.6,37.7,44.9c-0.6,0.6-1.3,0.9-2.1,0.9
			c-7.9-3.2-12.7-10.1-17.9-16.1c-7.2-8.2-14.3-16.5-20.5-25.6c-2-2.9-4.2-6.9-8.6-3.6c-3.9,3-1.8,6.5,0.2,9.7
			c8.8,14.1,19.9,26.3,31.1,38.6c2.6,2.9,6.1,5.1,6.9,9.3c-0.1,0.8-0.4,1.5-0.9,2.1c-18.2-14.9-31-34.4-45.5-52.4
			C294.5,736.4,294.5,734.1,295.8,731.9z"/>
		<path class="st16" d="M351.4,775.8c0.6,0,1.2,0,1.8,0c13.9,13.2,29.1,24.4,46.8,32.1c6.7,2.9,6.8,8.5,4.1,14.2
			c-2.7,5.8-7.1,6.9-13.2,4.1c-18.7-8.7-35.8-19.6-49.6-35c0-0.6,0-1.2,0-1.8c6.6,0.1,10,5.6,14.4,9.1c10.1,8.2,20.5,15.8,32.4,21.2
			c2.3,1.1,4.5,2.4,7.2,2.2c2.4-0.2,4.3-1.4,5.1-3.8c0.8-2.2-0.3-3.8-1.9-5.1c-2.2-1.8-4.8-2.9-7.3-4.2c-12.8-6.6-24.6-14.7-35-24.8
			C353.8,781.8,350.5,779.9,351.4,775.8z"/>
		<path class="st17" d="M481.4,824.7c19.2-0.1,38.4,1.1,57.4-3C519.9,826.6,500.8,828.4,481.4,824.7L481.4,824.7z"/>
		<path class="st18" d="M656.7,559.9c5.1-3.8,10.7-7.1,12.3-14c5.1,6.6,1.9,11.3-3.6,15.4c-2.8,1.2-5.6,1.2-8.4,0
			C656.9,560.9,656.8,560.4,656.7,559.9z"/>
		<path class="st19" d="M473,856.7c9,0,18,0,27,0C491,859.5,482,859.5,473,856.7z"/>
		<path class="st20" d="M246.9,591.9c7.7,0,15.5,0,23.2,0c0,0.5,0,1,0,1.5c-7.8,0-15.6,0-23.3,0c-0.5-0.4-0.6-0.7-0.4-1
			C246.5,592.1,246.7,591.9,246.9,591.9z"/>
		<path class="st19" d="M315.2,549.3c-2,4.8-5.9,7.9-10.1,10.7C307.1,555.2,311,552.1,315.2,549.3z"/>
		<path class="st21" d="M740.1,592.2c6,0,12.1,0,18.1,0c0,0.3,0,0.5,0,0.8c-6,0-12,0-18.1,0C740.1,592.8,740.1,592.5,740.1,592.2z"
			/>
		<path class="st22" d="M293.9,572.4c1.6-3.6,4.2-6.3,9-9.4C300.5,568.4,297.5,570.7,293.9,572.4z"/>
		<path class="st22" d="M283.3,585.3c0.8-3.7,3.4-5.8,7.6-8.8C289.2,581.7,286.1,583.3,283.3,585.3z"/>
		<path class="st16" d="M520.3,466.9c-5.6,0.2-11.2,0.3-16.9,0.5C509,463.6,514.6,464.4,520.3,466.9z"/>
		<path class="st23" d="M254.8,726.5c-3.7,0-7.4,0-11.1,0c0-0.3,0-0.5,0-0.8c3.8,0,7.5,0,11.3,0
			C254.9,725.9,254.9,726.2,254.8,726.5z"/>
		<path class="st23" d="M246.9,591.9c-0.1,0.5-0.1,1-0.1,1.5c-3.1,3.2-6.8,0.9-10.2,0.9C240,593.5,243.5,592.7,246.9,591.9z"/>
		<path class="st24" d="M795.4,608.2c4.4,1.9,6.3,3.6,7.6,6.6C799.2,614.4,797.9,612,795.4,608.2z"/>
		<path class="st21" d="M489.5,867.9c-3.5,0.4-6.7,1.3-10.3-0.3C483.1,866.6,486.5,866.5,489.5,867.9z"/>
		<path class="st25" d="M200.5,711.8c-2.7-1-5-2.4-5.6-6C198.2,706.9,199.5,709.2,200.5,711.8z"/>
		<path class="st22" d="M726.3,735.8c-0.5,2.5-1.7,4.4-4.5,4.9C721.8,737.6,724.2,736.8,726.3,735.8z"/>
		<path class="st6" d="M734.7,637.1c-5,0-7.7,0.8-10.5-0.8C727.3,635.4,730.2,635.2,734.7,637.1z"/>
		<path class="st6" d="M331.5,795.6c-3.4-1.7-5.3-2.9-5.8-5.7C328.7,789.9,329.8,792,331.5,795.6z"/>
		<path class="st24" d="M481.4,824.7c-2.7,0-5.4,0-8.1,0C476.1,822.9,478.9,822.2,481.4,824.7L481.4,824.7z"/>
		<path class="st9" d="M648,524.5c-1.7-1.7-3.4-3.4-5.2-5.2C646,519.6,649.3,519.7,648,524.5z"/>
		<path class="st22" d="M361,506.1c-1.3,2.5-2.3,3.9-4.5,4.1C356.3,507.1,358,506.5,361,506.1z"/>
		<path class="st22" d="M641.3,820.7c-1.3,3.5-2.5,4.8-5.3,5.4C636.5,823.4,638.2,822.5,641.3,820.7z"/>
		<path class="st25" d="M654.2,810.7c1.4-2.5,2.4-4,5.4-4C658.6,809,657.5,810.4,654.2,810.7z"/>
		<path class="st19" d="M462.9,855.1c2.8,0,5.6,0.1,8.3,0.1C468.4,857.6,465.6,857.6,462.9,855.1z"/>
		<path class="st26" d="M742.7,610.2c-0.9,2.2-1.2,4.4-0.6,6.7C738.5,614.4,738.5,612.1,742.7,610.2z"/>
		<path class="st25" d="M295.8,731.9c0,2.2,0,4.5,0,6.7C294,736.4,292.3,734.2,295.8,731.9z"/>
		<path class="st27" d="M699.1,606.8c2.3-1,4.6-0.2,6.8,0.1C703.6,609.4,701.3,609.3,699.1,606.8z"/>
		<path class="st28" d="M181.7,672.6c1.4,1.8,1.2,3.6,0.3,5.5C180.5,676.3,180.8,674.5,181.7,672.6z"/>
		<path class="st9" d="M759.4,603.9c-1.5-0.1-3-0.2-4.5-0.3c1.2-2,3.2-1.8,5.1-1.7c0.6,0,1.8-0.2,1.5,1
			C761.3,603.4,760.1,603.6,759.4,603.9z"/>
		<path class="st9" d="M692.2,569c-1.8-1.8-3.6-3.7-5.3-5.5C691.1,562.9,692.4,565.3,692.2,569z"/>
		<path class="st29" d="M687.3,563.5c-2.1-0.1-4.3-0.2-6.4-0.3C683.2,559.7,685.2,561.2,687.3,563.5z"/>
		<path class="st19" d="M454.4,853.4c2.8,0.4,6.1-1.1,8.4,1.7C460,854.7,456.8,856.2,454.4,853.4z"/>
		<path class="st30" d="M499.4,470.3c-0.1,2.1-1,3.8-2.6,5C494.9,472.3,496.8,471.1,499.4,470.3z"/>
		<path class="st31" d="M657,561.4c2.8,0,5.6,0,8.4,0C662.6,563.8,659.8,563.9,657,561.4z"/>
		<path class="st27" d="M548.9,493.7c2.6,0.9,5.6,0.7,7.3,3.4C553,497.5,550.3,497,548.9,493.7z"/>
		<path class="st31" d="M518.6,488.6c2.8,0.1,5.6,0.2,8.4,0.2C524.1,491.2,521.3,491.4,518.6,488.6z"/>
		<path class="st32" d="M480,459.4c-2,1-3.8,1.2-5.7-0.2C476.3,458.2,478.1,458,480,459.4z"/>
		<path class="st33" d="M471.6,866c-1.8,1.1-3.5,1-5.8,0.1C468,864.9,469.7,864.8,471.6,866z"/>
		<path class="st12" d="M722.9,876.8c-8.8-7.9-8.8-12,0-19.5c7.3-2.3,14.6-1.6,21.9-0.4c10.3,3.3,21.2,4.7,31.2,9.3
			c21.5,9.9,36.8,25.6,46,47.4c2.4,5.6,2,10.5-3.4,13.8c-5.7,3.5-10.2,1-13.8-3.7c-1.7-2.2-2.9-4.7-4.2-7.2
			c-9.4-17.9-22.8-30.6-43.4-34.9c-5.3-1.1-10.4-3.7-15.9-4.3C735.2,878.1,729,878.7,722.9,876.8z"/>
		<path class="st13" d="M837.5,985.1c-3,8.3-3.6,17.7-11.8,23.3c-2.8,1.4-5.7,2.1-8.3-0.4c-5.2-4.6-6.2-9.8-3.1-16.2
			c1.5-3.1,1.9-6.9,2.8-10.3c-0.7-3.9-1.1-7.8,0.2-11.7c0.4-2,0.3-3.8-1.4-5.1c-1.8-2.7-1-5.5-0.5-8.3c-1.3-7.5,2.2-14.1,8.3-14.5
			c7.2-0.5,10.2,4.5,11.6,10.6c0.8,3.5,0.6,7.2,2.3,10.5C838.9,970.4,839,977.8,837.5,985.1z"/>
		<path class="st34" d="M400.6,996.9c8.9-7.1,11.9-6.6,20.7,1.3c14.1,12.7,28.4,25.3,45.7,33.7c7.6,3.7,9.6,8.5,6.4,14.6
			c-3.6,6.9-9.4,5-14.6,3c-15.1-5.9-27.4-16.2-39.6-26.4c-6.6-5.5-12.5-11.9-18.8-17.9C399.2,1002.5,399,999.7,400.6,996.9z"/>
		<path class="st35" d="M295.7,829.7c0.8-4.6,3.6-6.9,8.2-6.6c5.4,0.3,8.8,3.4,10.3,8.4c5,16.9,11.4,33.3,18.8,49.3
			c10.3,22.7,22.3,44.3,38.7,63.4c5.5,6.4,13.6,10.6,17,18.9c-0.6,0.6-1.4,0.9-2.2,0.9c-12.9-7.6-21.6-19.3-29.9-31.2
			c-19.5-27.7-32.4-58.8-43.8-90.4c-0.8-2.1-1.4-4.3-2.2-6.3c-3.2-7.7-4.7-8.3-12.6-5.5C297,830.6,296.3,830.3,295.7,829.7z"/>
		<path class="st36" d="M295.7,829.7c0.6,0,1.2,0,1.8,0.1c4,13.4,8.3,26.7,13.6,39.7c9.3,22.7,19.8,44.7,33.8,65
			c7.5,11,15.9,21.1,25.5,30.3c9.2,8.8,10,8.8,16.5-1.6c0.6,0,1.1,0,1.7,0c-0.3,4.5,1.7,9.7-4.4,12.3c-6.3,2.7-10-1-14-4.7
			c-29.7-27.3-48-61.7-62.6-98.5c-4.3-10.9-8.1-22.1-12.1-33.2C294.2,835.9,292.9,832.8,295.7,829.7z"/>
		<path class="st6" d="M800.6,951.6c4.7,9,2.8,18.7,2.6,28.2C801.4,970.6,803.6,961,800.6,951.6z"/>
		<path class="st22" d="M275.6,787.2c0-6.7,0-11.6,0-16.5c0-1.9,1.1-2.4,2.7-1.7c1,0.4,2.4,1.3,1.1,2.3
			C274.1,775.2,279.2,781.1,275.6,787.2z"/>
		<path class="st37" d="M837.5,985.1c0-7.3,0-14.7,0-22C840.4,970.4,840.4,977.8,837.5,985.1z"/>
		<path class="st38" d="M744.8,856.8c-7.3,0.1-14.6,0.3-21.9,0.4C730.1,853.4,737.4,854.4,744.8,856.8z"/>
		<path class="st25" d="M632.1,951.3c0-5.5,0-11,0-16.5c0.2,0,0.5,0,0.7,0c0,5.5,0,11,0,16.5C632.6,951.2,632.3,951.3,632.1,951.3z"
			/>
		<path class="st24" d="M687.5,858.3c2.2-4,5.8-5.5,10.3-5.2C694.4,854.9,690.9,856.6,687.5,858.3z"/>
		<path class="st39" d="M722.9,876.8c6.2,0.1,12.3,0.3,18.5,0.4C735.1,879.5,728.9,880.1,722.9,876.8z"/>
		<ellipse class="st33" cx="676.4" cy="1070.3" rx="8.2" ry="0.6"/>
		<path class="st25" d="M788,922.6c-3.3-0.6-5-3-7.5-6.3C785.1,916.9,786.4,919.9,788,922.6z"/>
		<path class="st24" d="M731.7,1109.5c3.7-1.7,6.2-3.4,10.6-2.2C738.9,1108.7,736.5,1110.3,731.7,1109.5z"/>
		<path class="st25" d="M772.1,907.5c3.9,1,5.2,2.7,6.2,5.5C775,912.5,774,910.5,772.1,907.5z"/>
		<path class="st35" d="M817.3,969.9c-0.1,3.9-0.2,7.8-0.2,11.7C815,977.6,814.7,973.7,817.3,969.9z"/>
		<path class="st40" d="M660.4,968.2c-3.1,2.9-6.6,1.2-10,0C653.7,968.2,657,968.2,660.4,968.2L660.4,968.2z"/>
		<path class="st25" d="M741.2,845.4c-3.6,1.6-5.7,1.4-8.2,0.7C735.1,844.1,737.3,845.2,741.2,845.4z"/>
		<path class="st22" d="M400.6,996.9c0,2.8-0.1,5.6-0.1,8.4C397.4,1002.4,398.1,999.7,400.6,996.9z"/>
		<path class="st22" d="M667.1,964.8c0.9-1.7,1.9-3.3,4-4C672,964.5,669.2,964.3,667.1,964.8L667.1,964.8z"/>
		<path class="st22" d="M667.1,964.8c-1.3,3-3.9,3.5-6.8,3.4c0,0,0,0,0,0C662.1,966,664.4,965.1,667.1,964.8L667.1,964.8z"/>
		<path class="st41" d="M849,980.1c0-0.2,0,1.4,0,3.1C846.2,982,848.9,980,849,980.1z"/>
		<path class="st42" d="M815.3,956.5c1.3,2.7,0.7,5.5,0.5,8.3C813,962.2,813.3,959.4,815.3,956.5z"/>
		<path class="st43" d="M817.4,1008c2.8,0.1,5.5,0.3,8.3,0.4C822.8,1011.2,820,1011.6,817.4,1008z"/>
		<path class="st6" d="M603.8,1065c-2.5,1.4-4.2,1.3-6.1,0.4C599.3,1063.8,601,1064.5,603.8,1065z"/>
		<path class="st6" d="M606.3,1066.3c3.5,0,5,0,7,0C611.5,1068.5,609.8,1068,606.3,1066.3z"/>
		<path class="st8" d="M696.2,1068.6c-1.9,1.2-4.6,1.2-4.9,0.4c-0.6-2.2,1.6-0.9,2.6-1.1C694.5,1067.8,695.3,1068.3,696.2,1068.6z"
			/>
		<path class="st25" d="M726.9,845.8c-2.6,1.1-4.3,1.2-6,0C722.6,844.6,724.3,844.8,726.9,845.8z"/>
		<path class="st6" d="M599.9,1113.4c1.5,0.1,4.2,0.1,4.3,0.4c0.2,2.1-1.6,0.9-2.5,1.1c-0.7,0.1-1.4-0.3-2.2-0.5
			C599.6,1114.1,599.8,1113.7,599.9,1113.4z"/>
		<path class="st1" d="M220,937.4c-12.2-12.4-24.4-24.8-36.7-37.1c-4.5-4.5-6-9-0.8-13.7c5.1-4.6,10.1-2.7,13.8,1.9
			c12.3,15,27,27.7,40.3,41.7c3,3.2,7,5.9,4.1,11.5c-2.8,5.6-7.2,5.5-12.1,4.2C225.1,943.8,222.8,940.4,220,937.4z"/>
		<path class="st25" d="M151,870.7c12.5,1.4,24.5-3.3,36.6-1.4C175.3,870.5,163.1,873.4,151,870.7z"/>
		<path class="st25" d="M233.3,819.6c-0.6,0-1.1,0-1.7,0c0-8.9,0-17.7,0-26.6c0.6,0,1.1,0,1.7,0
			C233.3,801.9,233.3,810.7,233.3,819.6z"/>
		<path class="st44" d="M220,937.4c4.2,1.5,6,5.5,8.6,8.5C223.8,945.1,221.1,942.1,220,937.4z"/>
		<path class="st6" d="M237.8,754.2c-2.8,1.5-4.3,2.8-5.3,4.9c-0.3-0.5-0.7-0.9-0.7-1.3C231.5,754.3,233.5,753.7,237.8,754.2z"/>
		<path class="st6" d="M250,756.9c-2.1,0-4.2,0-6.6,0C245.5,754.2,247.9,756.4,250,756.9z"/>
		<path class="st12" d="M564.1,377.3c-5.7-1-11.3-2-17-3.1c-3.9,0.6-7.9,1.4-11.7-0.4c-9.7-3.5-19.8-1.5-29.7-1.6
			c-6-0.1-11.5-0.4-13.7-6.8c-2.1-6,1.8-9.9,6.3-13.1c3.3-1.8,6.7-1.4,10.1-0.3c5.6,0,11.3,0,16.9,0c5.6-1,11.3-1.8,16.8,0.4
			c0.6,0.3,1.2,0.7,1.9,1c2.8-0.6,5.6-1.2,8.4,0.3c13.2,4.6,27.1,5.9,40.4,10.1c48.5,15.4,90.5,41.4,126.8,76.9
			c5,4.9,10.9,8.7,14.6,14.9c2.8,4.7,3.2,8.9-0.7,12.9c-4,4.2-8.2,3.3-13,1c-7.8-3.6-10.4-12.3-17.3-16.5c-2.5-0.9-4.6-2.2-5.2-5.1
			c-16.2-14.4-33.9-26.7-52.2-38.4c-12.4-7.9-26-12.4-38.8-19.1c-8.6-4.5-18.5-6.6-27.8-9.8c-1.9-0.7-3.2,0.2-4.4,1.6
			C572.1,378.9,567,380.5,564.1,377.3z"/>
		<path class="st13" d="M859.6,517c-3.1-2.8-4.4-7.8-9.6-8.1c-16.9-1.6-33.9-0.2-50.8-0.8c-3-0.1-6.1,1-8.9-1
			c-5.5-2.5-7.5-7.1-6.2-12.5c1.2-5.4,5.8-7.2,10.9-7.2c18.7-0.1,37.5-0.1,56.2,0c10.8,0.1,18.4,5.5,23.4,14.9
			c1.2,3.5,1.9,7-1.1,10.1c-1.9,1.6-3.8,3.2-5.6,4.8C865.1,518.9,862.4,519.1,859.6,517z"/>
		<path class="st1" d="M186.1,521.1c-11.5,0-23,0.1-34.5,0c-9.3-0.1-16.8-4.2-21.5-12.2c-2.8-4.8-3.8-10.6,1.9-14.1
			c5.4-3.4,9,0.8,11.6,4.9c4,6.5,10.6,5.6,16.4,5.7c20.2,0.4,40.4,0,60.6-0.1c3.3,0,6.7-0.4,9.4,2.5c2.4,2.6,2.7,5.8,1.5,8.6
			c-1.6,3.7-5.3,4.7-9.1,4.7C210.2,521.1,198.1,521.1,186.1,521.1z"/>
		<path class="st38" d="M350.5,407.7c5.9,0.2,9.9,1.9,11.8,6.7c1.9,4.9-0.9,8.3-4.2,10.9c-25.8,19.8-50.8,40.4-74.3,62.8
			c-4.9,4.7-9.8,5-14.7,0.1c-4.9-5-4.3-10.1,0.6-14.6c18.1-16.7,36.4-33.2,55.7-48.5c6.4-5,13-9.8,19.3-14.8
			C346.8,408.5,348.9,407.5,350.5,407.7z"/>
		<path class="st14" d="M738.4,477.1c6.3-7.8,10.8-8.5,18.9-2.6c3.1,2.3,5.9,5.1,8.7,7.8c4.4,4.3,6.4,8.9,1.6,14.5
			c-5,5.8-12.4,4.2-15.4,0.6c-3.9-4.6-9.8-5.8-13.2-10.4C738,483.7,735.4,480.6,738.4,477.1z"/>
		<path class="st24" d="M144.3,523c28,0,55.9,0,83.9,0c0,0.3,0,0.6,0,0.8c-28,0-56,0-83.9,0C144.3,523.5,144.3,523.3,144.3,523z"/>
		<path class="st41" d="M144,475.4c21.9,0,43.7,0,65.6,0c-1.4,1.9-3.5,1.6-5.4,1.6c-18.3,0-36.5,0-54.8,0
			C147.4,477,145.4,477.2,144,475.4z"/>
		<path class="st45" d="M790.4,507.1c17.9-0.1,35.9-0.2,53.8-0.2c2.1,0,4.6-0.7,5.9,2c-17.6,0.1-35.2,0.1-52.8,0.1
			C794.8,509,792.1,509.8,790.4,507.1z"/>
		<path class="st46" d="M800.6,475.4c15.7,0,31.4,0,47.1,0c-5.2,3.3-11,1.7-16.4,1.5C821.1,476.4,810.7,479,800.6,475.4z"/>
		<path class="st33" d="M521.9,397.6c-12.9,0-25.7,0-38.6,0C496.1,395,509,394.9,521.9,397.6z"/>
		<path class="st24" d="M267,443.2c2.2-3.4,5-6.3,8.5-8.4C275.1,440,271.3,441.9,267,443.2z"/>
		<path class="st38" d="M542.1,352.4c-5.6-0.1-11.2-0.3-16.8-0.4C531,349.6,536.6,349,542.1,352.4z"/>
		<path class="st25" d="M238.4,468.6c2.8-2.3,5.6-4.5,8.4-6.8C245.6,466.1,244.2,470,238.4,468.6z"/>
		<path class="st22" d="M329.6,458.4c-2.2,3.4-5.1,6.2-8.5,8.5C321.6,461.7,325.2,459.6,329.6,458.4z"/>
		<path class="st32" d="M884.9,495.4c2.6,5.7,2.6,11.4,0,17.2C884.9,506.8,884.9,501.1,884.9,495.4z"/>
		<path class="st39" d="M564.1,377.3c3.4,2,8.9-0.6,10.7,5C571.5,380.2,566.2,382.1,564.1,377.3z"/>
		<path class="st31" d="M535.5,373.9c3.9,0.1,7.8,0.3,11.7,0.4C543.2,376.4,539.3,376.9,535.5,373.9z"/>
		<path class="st23" d="M567.8,403.2c4.5-0.8,6.7,0,8.6,2C573.4,406.6,571.3,404.4,567.8,403.2z"/>
		<path class="st30" d="M738.4,477.1c0.2,3.3,0.5,6.5,0.7,9.8C735.7,483.8,734.6,480.6,738.4,477.1z"/>
		<path class="st24" d="M312.8,473.6c-1.8,2.8-4.1,5.1-6.8,6.9C306.3,476.3,308.6,474,312.8,473.6z"/>
		<path class="st47" d="M873.5,512.3c0.4-3.4,0.8-6.7,1.1-10.1C876.8,505.9,878.6,509.5,873.5,512.3z"/>
		<path class="st48" d="M508.4,352.1c-3.4,0.1-6.7,0.2-10.1,0.3C501.6,349.3,505,349.6,508.4,352.1z"/>
		<path class="st8" d="M857.9,477c3.4,0.5,7.2-1.5,10.2,1.6C864.7,478.1,860.9,480,857.9,477z"/>
		<path class="st22" d="M679.9,465.6c4.6,0.1,5.3,2,7.1,3.6C683.5,470.2,682.9,467.6,679.9,465.6z"/>
		<path class="st15" d="M698,448c1.7,1.7,3.5,3.4,5.2,5.1C699.9,453,696.9,452.6,698,448z"/>
		<path class="st23" d="M483.3,342.1c2.7,0,5.4,0,8.1,0C488.7,344.4,486,344.4,483.3,342.1z"/>
		<path class="st39" d="M552.4,353.8c-2.8-0.1-5.6-0.2-8.4-0.3C546.9,351.4,549.7,351.2,552.4,353.8z"/>
		<path class="st49" d="M859.6,517c2.8,0,5.5,0.1,8.3,0.1C865.1,520.1,862.4,520.2,859.6,517z"/>
		<path class="st23" d="M124.6,498c0.6,2.8,1.3,4.5-0.3,6.1C123.3,502.3,123.3,500.6,124.6,498z"/>
		<path class="st50" d="M677.4,632.5c17.6,17.9,38.4,26.8,63.8,23.5c3.3-0.4,6.8-0.2,10.1,0.2c4.1,0.5,6.7,3.3,6.7,7.4
			c0,4.2-2.7,6.9-6.9,7.2c-4.8,0.4-9.6,0.5-14.3,0.1c-25.6-2-45.9,8.2-62.5,27c-13.2,14.9-26.5,29.9-39.8,44.7
			c-31.4,34.9-69.3,57.8-117,61.7c-56.4,4.7-103.8-14.1-142.4-55.2c-14.8-15.8-29-32.2-43.4-48.3c-12.6-14.1-27.1-25.4-46.2-29.2
			c-9.8-1.9-19.6-0.4-29.5-0.7c-5.3-0.2-10.9-0.5-10.9-7.4c0-6.7,5.3-7.5,10.8-7.7c10.9-0.4,21.9,1.1,32.8-1.3
			c6.7-1.5,12.7-4.3,18.7-7.3c1.7,0.1,3.4,0.2,5,0.9c14.9,6.8,27.7,2.8,39.9-6.9c21-16.6,41.8-15.7,62.4,2.4
			c1.6,7.5-0.3,15-0.2,22.5c0.8,65.5,71.7,104.1,126.4,75.5c33.4-17.5,51.6-51.5,47.4-88.4c-0.3-2.5-0.9-5,0.7-7.3
			c3.3-1.9,5.1,0.9,7.2,2.5c15.7,12,27.7,11.7,41.4-2.6C648.7,634.2,661.5,629.3,677.4,632.5z"/>
		<path class="st51" d="M413.7,644.2c-2.5,0-4-1.8-5.8-3.1c-17.6-12.9-38.5-12.6-55.9,3.2c-13.7,12.4-30.3,13.2-44.6,3.1
			c19.6-13.6,33.9-32.6,49.4-50.2c21.5-24.3,44.4-47,74.6-60.6c59.1-26.6,139.9-20,196.4,40.8c16.8,18.1,33.1,36.7,49.6,55.1
			c-2.9,2.6-6.5,1.3-9.7,1.2c-10-0.5-17.9,3.5-24.9,10.2c-2.2,2.1-4.3,4.4-6.6,6.5c-12.1,11.4-28.5,11.5-40.9,0.4
			c-1.9-1.7-3.8-3.3-5.7-4.9c-4.2-1.6-4.1-5.8-5.3-9c-12.2-32.6-35.1-52.6-69.5-59c-39-7.2-81.5,17.7-94.7,55.1
			C418.7,637,418.7,642.1,413.7,644.2z"/>
		<path class="st1" d="M484.7,853.7c-21.9-0.9-43-4.8-62.6-15.2c-4.2-2.3-8.4-4.9-5.9-10.1c2.4-5.1,6.5-6.1,12.5-3.6
			c20.7,8.6,42.3,13.5,65,13.3c5.5,0,10.8,2,10.5,8.1c-0.3,5.8-5.2,8.1-11.1,7.6C490.4,853.5,487.5,853.7,484.7,853.7z"/>
		<path class="st1" d="M351.4,775.8c12.6,15,28.7,25.3,46.1,33.8c3.5,1.7,6.5,3.8,6.1,8c-0.3,3.3-3.1,5.3-5.8,6.7
			c-3.1,1.6-5.9-0.5-8.7-1.7c-18.2-7.8-32.7-20.9-47.7-33.2c-13.9-15.6-28.7-30.4-39.6-48.4c-1.8-3-3.7-5.5-1.6-9.1
			c4-6.8,8.8-6.4,14.1,1.3c9.6,14.1,20.6,27,32.8,39C348.3,773.3,349.9,774.5,351.4,775.8z"/>
		<path class="st0" d="M472.7,1040.9c-0.5,7-5.7,9.9-12.2,7.1c-11.3-5-21.3-12-31.2-19.5c-8.3-6.3-15.5-13.8-22.8-21.1
			c-2.9-2.9-7-5.7-2.2-10.3c4.3-4.2,8.7-3.1,12.6,0.3c5,4.4,9.8,9.1,14.9,13.5c10.2,8.8,21,16.6,33.1,22.5
			C468.6,1035.1,471.8,1037.2,472.7,1040.9z"/>
		<path class="st0" d="M386.9,963.1c1,4.8-1,8.6-5,10.6c-4.4,2.3-7.1-1.8-9.8-4.4c-31-28.6-49.7-65-64.6-103.7
			c-4.5-11.6-10.8-22.8-10-35.9c6.4-6.6,11-5.5,14.7,4c5.3,13.7,9.9,27.8,15.7,41.3C342,908.1,358.8,939.4,386.9,963.1z"/>
		<path class="st0" d="M276.2,489.6c-3.2-0.8-5.8-2.2-6.9-4.9c-1.7-4.2,0-8.1,3.2-10.6c7.5-5.9,13.7-13.3,21.1-19.3
			c16.7-13.9,33.1-28.4,50.9-41c1.6-1.1,3.1-2.3,4.8-3.3c3.6-2.1,6.6-0.6,8.9,2.2c2.4,3,2.3,5.9-0.7,8.9
			c-9.4,9.7-20.9,16.9-31.1,25.6c-13.9,11.7-28,23.3-40.9,36.1C282.6,486,279.5,488.2,276.2,489.6z"/>
		<path class="st52" d="M413.7,644.2c6.4-20.9,16.9-38.9,34.8-52.2c50-37.1,122.5-11.9,139.3,48.5c0.5,1.9,1.3,3.7,1.9,5.5
			c4.8,30.4-2,57.4-23.5,80c-27.3,28.7-69.1,35.7-105.2,17.9c-34.4-17-54.1-55.5-48-93.8C413.2,648,413.4,646.1,413.7,644.2z"/>
		<path class="st53" d="M614.9,595.3c-0.1,9.7-6.7,16.7-16.1,16.8c-10,0.1-17.9-7.7-17.7-17.3c0.2-10,7.1-16.7,17.3-16.6
			C608.3,578.3,614.9,585.1,614.9,595.3z"/>
		<path class="st53" d="M398.8,609c-0.1,9.7-6.8,16.6-16.2,16.6c-10,0.1-17.9-7.8-17.6-17.3c0.2-9.5,7.9-16.7,17.5-16.5
			C392.4,591.9,399,598.7,398.8,609z"/>
		<path class="st54" d="M419.1,587.2c-0.3,5.1-3,7.9-8.5,8c-5.8,0.1-8.3-3.5-8.4-8.4c0-5.4,2.7-9,8.9-8.7
			C416.7,578.5,419.1,581.7,419.1,587.2z"/>
		<path class="st55" d="M621.7,626.2c-0.3,5.5-2.9,9.2-8.6,9.3c-5.2,0-8.2-3.3-8.4-8.4c-0.2-5.4,2.6-8.2,8-8.4
			C618,618.4,621.1,620.9,621.7,626.2z"/>
		<path class="st56" d="M511.8,593.2c30.3,5.7,49.1,24.3,58.9,52.8c2.4,2.4,1.8,5.4,1.6,8.3c2.6,31.4-9.5,55.8-36.6,71.4
			c-25.5,14.7-51.6,12.7-75.4-4.2c-23.9-16.9-34-41.2-28.7-70c5.2-28.5,22.7-47.7,50.9-56.2c3-0.9,6-1.4,9-2.1
			c0.4,0,0.8-0.1,1.2-0.1c6-0.1,12-0.1,17.9,0C511.1,593.1,511.4,593.2,511.8,593.2z"/>
		<path class="st57" d="M491.7,591.8c6.4-3.7,13.3-1.2,20-1.4c0.1,0,0.4,0.4,0.3,0.6c0,0.3-0.2,0.5-0.3,0.8
			C505,594.3,498.4,594.3,491.7,591.8z"/>
		<path class="st58" d="M491.7,591.8c6.7,0,13.4,0,20,0c0.1,0.5,0.1,0.9,0.1,1.4c0.1,0.3,0.1,0.6-0.1,0.8c-6.7,0.3-13.4,0.3-20.1,0
			c-0.2-0.3-0.2-0.5-0.1-0.8C491.5,592.8,491.6,592.3,491.7,591.8z"/>
		<ellipse class="st59" cx="575.1" cy="664.3" rx="0.6" ry="9.4"/>
		<path class="st60" d="M572.4,654.3c-0.5-2.8-1.1-5.5-1.6-8.3C575.7,647.9,575.2,650.9,572.4,654.3z"/>
		<path class="st61" d="M428.7,659.7c0,3.2,0,6.4,0,9.5C427,666,427.3,662.7,428.7,659.7z"/>
		<path class="st62" d="M506.7,634.1c16.1,2.7,26.6,16.1,25.4,32.3c-1.1,15.7-14.4,28.1-30.3,28.2c-15.9,0.1-29.6-12.2-30.7-27.7
			c-1.3-17.2,8.8-30.1,25.6-32.9C500,635.3,503.3,635.2,506.7,634.1z"/>
		<path class="st63" d="M440.8,662.4c0.2-4.8,0.2-11.5,8.4-11.7c8.2-0.3,9.8,5.7,10.3,12.5c1.2,15.2,7.2,27.5,21.5,34.7
			c5.5,2.8,9.6,6.8,6.6,13.3c-3,6.5-9,5.7-14.6,3.8C455.8,709,441.2,685.7,440.8,662.4z"/>
		<path class="st64" d="M509.1,605c17.7,0.2,37.9,14.2,44.2,30.6c2.1,5.5,2.3,10.8-3.6,13.9c-6.3,3.3-10.9,0.4-13.9-5.3
			c-6.1-11.3-14.7-19.1-28.1-20.1c-6.5-0.5-11.9-2.5-11.4-10.5C496.8,605.6,502.8,604.9,509.1,605z"/>
		<path class="st65" d="M491.6,594.1c6.7-1,13.4-1,20.1,0C505,595.8,498.3,595.8,491.6,594.1z"/>
		<path class="st66" d="M506.7,634.1c-3.3,2.3-6.7,2.4-10,0C500,634.1,503.4,634.1,506.7,634.1z"/>
	</g>
</g>
</svg>
