<?xml version="1.0" encoding="utf-8"?>
<!-- Generator: Adobe Illustrator 22.0.1, SVG Export Plug-In . SVG Version: 6.00 Build 0)  -->
<svg version="1.1" xmlns="http://www.w3.org/2000/svg" xmlns:xlink="http://www.w3.org/1999/xlink" x="0px" y="0px"
	 viewBox="0 0 1000 1412" style="enable-background:new 0 0 1000 1412;" xml:space="preserve">
<style type="text/css">
	.st0{fill:#030303;}
	.st1{fill:#FEFEFE;}
	.st2{fill:#DADADA;}
	.st3{fill:#040404;}
	.st4{fill:#BEBFC0;}
	.st5{fill:#E0E1E1;}
	.st6{fill:#6F6F6F;}
	.st7{fill:#4F4F4F;}
	.st8{fill:#787878;}
	.st9{fill:#737373;}
	.st10{fill:#727272;}
	.st11{fill:#03B1FE;}
	.st12{fill:#02B1FE;}
	.st13{fill:#0EB5FE;}
	.st14{fill:#11B5FE;}
	.st15{fill:#0CB4FE;}
	.st16{fill:#0AB3FE;}
	.st17{fill:#0DB4FE;}
	.st18{fill:#FAFAFA;}
	.st19{fill:#EAEAEA;}
	.st20{fill:#F0F0F0;}
	.st21{fill:#010101;}
	.st22{fill:#FDFDFD;}
	.st23{fill:#FCFCFC;}
	.st24{fill:#FBFBFB;}
	.st25{fill:#717171;}
	.st26{fill:#767676;}
	.st27{fill:#707070;}
	.st28{fill:#828282;}
	.st29{fill:#808080;}
	.st30{fill:#757575;}
	.st31{fill:#777777;}
	.st32{fill:#656565;}
	.st33{fill:#7A7A7A;}
	.st34{fill:#5B5B5B;}
	.st35{fill:#595959;}
	.st36{fill:#606060;}
	.st37{fill:#797979;}
	.st38{fill:#747474;}
	.st39{fill:#5D5D5D;}
	.st40{fill:#7C7C7C;}
	.st41{fill:#555555;}
	.st42{fill:#626262;}
	.st43{fill:#545454;}
	.st44{fill:#565656;}
	.st45{fill:#F8F8F8;}
	.st46{fill:#F4F4F4;}
	.st47{fill:#F9F9F9;}
	.st48{fill:#F6F6F6;}
	.st49{fill:#F1F1F1;}
	.st50{fill:#818181;}
	.st51{fill:#7D7D7D;}
	.st52{fill:#616161;}
	.st53{fill:#575757;}
	.st54{fill:#9EE7FE;}
	.st55{fill:#001D38;}
	.st56{fill:#9FE7FE;}
	.st57{fill:#A2E8FE;}
	.st58{fill:#A1E8FE;}
	.st59{fill:#00B0FE;}
	.st60{fill:#021730;}
	.st61{fill:#0C547C;}
	.st62{fill:#00152F;}
	.st63{fill:#003A53;}
	.st64{fill:#FCFDFD;}
	.st65{fill:#003764;}
	.st66{fill:#0EBDFE;}
	.st67{fill:#003662;}
</style>
<g id="Layer_1">
</g>
<g id="Layer_2">
	<g>
		<path class="st0" d="M712.1,767.1c-10.4,6.9-14.2,17.3-15.3,29.2c-1.9,20-14.4,34.7-32.8,39.3c-27.3,6.7-53.5-13.4-53.3-42.4
			c0.5-71.4,60-121.6,119.6-120.6c78.3,1.3,141,67.1,138.6,145.9c-1.2,38-11.8,72.6-36.5,102.2c-14.3,17.1-32.1,29.9-51.4,40.6
			c-2.7,1.5-5.3,3.1-7.9,4.7c-0.1,0.1,0,0.5,0.1,1.4c21,0,42,0,63,0c18.9,0,37.8,0.2,56.7-0.1c5.7-0.1,10.3,1.2,14.2,5.4
			c0,2.8,0,5.6,0,8.5c-2.4,5.7-7,7.8-12.8,7.8c-2.3,0-4.5,0.1-6.8,0.1c-257.6,0-515.3,0-772.9,0c-3.4,0-6.8,0-10.1-0.3
			c-4.1-0.4-7.6-1.9-9.7-5.8c0-3.9,0-7.9,0-11.8c5.1-3.5,10.8-3.7,16.7-3.7c138.5,0.1,276.9,0.1,415.4,0.1c1.5,0,3.1,0,4.6,0
			c-117-46.4-205.6-122.6-256.2-239.7c-2.6,1.6-1.2,4-1.2,5.9c-0.1,33.8-0.1,67.7-0.1,101.5c0,1.4,0,2.8,0,4.2
			c-0.1,7.9-3,14.4-10.6,17.7c-7.8,3.4-14.4,0.7-20-4.9c-14.5-14.6-28.9-29.3-43.4-44c-21.4-21.7-42.8-43.4-64.1-65.1
			c-11.1-11.3-13.8-21.6-8.6-32.6c5-10.7,14.5-15.1,29.8-14.2c11.9,0.7,23.7,0.5,35.2-3.1c9.7-3.1,15.3-9.1,16.3-20.1
			c2.2-25.9,2.2-51.8,1.2-77.7c-3.6-4.4-8.7-6.7-13.2-9.8c-3.5-2.3-6.7-4.8-8.8-8.5c-16.8-17.1-27.6-37.2-28.5-61.4
			c-2.3-55.3,38.8-97.6,94.1-96.8c9.2,0.1,15.2-3,21-9.7c20.5-24,40.9-48.1,65.7-68c102.7-82.6,243.7-75.6,340.4,16.8
			c16.1,15.4,30.9,32.1,45,49.3c6.7,8.1,14.1,12,25.4,11.6c66.3-2.5,113.3,73.1,81.9,131.6c-17.5,32.7-44.1,51.1-82.3,50.4
			c-11.7-0.2-20.2,5.7-27.4,14.4c-17.1,21-35.2,41.2-55.9,58.7c-74.9,63.3-159.7,76-251.9,47.8c-17.1-5.2-32.9-14.1-48.5-23
			c-2.9-0.8-5.4-2.4-9-4.6c2.2,4.9,3.2,8.9,4.3,12.9c12.1,28.1,29.3,53,49.7,75.4c30.7,33.9,66.6,61.3,107.7,81.8
			c28.3,14.1,57.6,24.8,89.1,29.1c15,0.9,29.7,4.8,44.9,3.8c34.9-2.4,69.8-4.3,100.1-25.1c22.4-15.3,35.3-52.5,21.2-79.9
			c-12.1-23.5-33.4-32.9-59.1-25.2C714.3,767.2,713.2,767.4,712.1,767.1z"/>
		<path class="st1" d="M94.6,982.7c6.4,4.6,13.8,3.5,21,3.5c159.3,0,318.5-0.1,477.8-0.1c100.1,0,200.1,0,300.2,0.1
			c5.5,0,9.7-1.6,13.4-5.3c0,14.7,0,29.3,0,44c-2.5,0.5-3.6-1.3-4.7-2.8c-7.1-9.7-17.2-15.3-28-19.6c-11.4-4.5-14.4-3.1-17.9,8.4
			c-7.7,25.1-14.3,50.4-21.3,75.7c-3.9,14.1-7.3,28.4-11,42.6c-0.8,3.1-0.8,7.9-5,7.8c-4.6-0.1-4.9-5-5.3-8.4
			c-2.5-20.4-4.6-40.9-7.1-61.3c-0.1-0.6,0-1.1-0.1-1.7c-2.2-28.6-6.6-33.6-34.7-40.3c-12.8-3-16.2-1.3-19.9,11.2
			c-8.4,28.4-15,57.3-22,86c-0.9,3.8-1.6,7.7-2.7,11.5c-0.9,3.1-1.3,7.8-5.4,7.5c-3.9-0.3-3.8-5.1-4.4-8.2
			c-2.8-14.7-5.2-29.4-7.3-44.2c-2.4-17.3-5.6-34.5-8-51.8c-2.1-15.4-10.6-24.9-25.3-29.4c-7-2.1-14.1-4.1-21.4-4.9
			c-7-0.8-8.6,0.7-8.3,7.8c0.2,5.4,2,10.5,3.1,15.7c11.1,53.3,23.5,106.2,40,158.1c5,15.6,14.2,24.4,30,26.8
			c4.2,0.6,8.2,1.9,12.3,2.9c10.6,2.6,14.7,0.5,17.4-10.1c4.4-17.2,9.5-34.2,14.7-51.2c1.4-4.6,2.8-9.2,4.5-13.6c1-2.6,1.8-6,5.1-6
			c3.4,0,4,3.4,4.7,6.1c2.7,9.8,5.8,19.4,8.5,29.2c2.2,8.2,5,16.1,8.3,24c2.1,5.1,5.4,9.5,10.1,12.1c11.3,6.1,23.8,8.5,36.3,10.3
			c7.1,1,10.4-4.7,12.1-10.7c3-10.3,5.7-20.7,8.3-31c10.7-42.4,23.1-84.3,36.4-125.9c1.4-4.2,1.6-9.8,7.8-10.7
			c0,66.6,0,133.1,0,199.7c-10.5-5.3-21.9-4-33-4c-251.6,0-503.3,0-754.9-0.1c-8.1,0-16.2,1.1-24.4,0.7
			C94.6,1149.7,94.6,1066.2,94.6,982.7z"/>
		<path d="M907,1036.9c-3.4,2.5-3.9,6.5-5.1,10.1c-16.9,50.5-30.5,101.9-43.8,153.4c-0.8,3-1.4,6.1-2.6,8.9
			c-3.1,7.6-9.2,10.6-17,8.6c-7.9-2.1-15.7-4.5-23.6-6.3c-11.5-2.6-18.8-9.5-22.5-20.5c-5.8-17.6-11.6-35.3-16.1-53.3
			c-0.4-1.6-0.5-3.4-2.6-4.7c-7.9,22.7-14.5,45.6-20.6,68.7c-4.7,17.5-7.9,19.3-24.8,14c-4.3-1.3-8.7-2.2-13.1-3
			c-12.8-2.3-20.9-9.2-25.1-21.9c-12.6-38-22.8-76.6-31.6-115.6c-4.5-19.8-8.6-39.6-12.9-59.4c-0.6-2.7-0.8-5.6-1-8.4
			c-0.5-5.8,2-8.6,8-7.5c10.5,1.9,21,3.8,31,7.9c12.2,5,18.5,13.8,20.5,26.6c5.7,35.5,10.2,71.3,17.4,107.4
			c3.4-3.6,3.4-7.6,4.2-11.2c7.4-31.5,14.4-63.1,23.9-94.1c4.9-16.1,7.4-17.4,23.7-13.2c6,1.5,11.9,3.3,17.8,5.2
			c11.3,3.7,14.8,13,16.1,23.6c3,25.5,6,50.9,9,76.4c0.3,2.8,1,5.5,1.5,8.2c3-0.4,2.9-2.5,3.4-4.4c10.5-41.2,21.2-82.3,33.5-122.9
			c4.1-13.5,6.5-15,19.1-9.5c13.1,5.6,26.7,11,33.5,25.2C907,1029,907,1032.9,907,1036.9z"/>
		<path class="st0" d="M94.6,337.9c2.2-4.4,4.1-9.1,6.7-13.3c9.1-14.5,22.5-21.9,39.5-22.1c23.1-0.3,46.2-0.3,69.4,0.1
			c7.6,0.1,13.4-2.2,19-7.3c24.2-22.4,47.6-45.7,74.3-65.2c114.3-83.3,268.9-77.5,370.5-15.7c36.2,22,66.5,51.1,97,79.9
			c5.9,5.6,12.1,8.5,20.3,8.3c21.4-0.3,42.9-0.2,64.3-0.2c25.3,0,39.6,9.6,49.4,33.2c0.4,1.1,0.7,2.1,2,2.3c0,8.5,0,16.9,0,25.4
			c-2.5,0.3-2.6,2.6-3.4,4.3c-8,17.4-21.8,27.8-40.8,28.3c-31,0.9-62,0.9-93-0.1c-22.5-0.7-40.4-12.9-56.6-27.5
			c-16.7-15.1-33.1-30.6-50.1-45.4C613,279.6,555,258.1,488.3,262c-62.7,3.6-116.8,26.9-162,70.8c-13.5,13.2-27.5,25.9-41.7,38.4
			c-20.8,18.2-45,26.9-73,25.5c-19.7-1-39.5-1.1-59.2-0.1c-27.6,1.4-47.5-8.5-57.9-34.9C94.6,353.7,94.6,345.8,94.6,337.9z"/>
		<path d="M94.6,1233.2c3.6-3,7.6-4,12.4-4c262.2,0.1,524.3,0.1,786.5,0c6.4,0,10.6,2.1,13.5,7.4c0,1.7,0,3.4,0,5.1
			c-1.2,2.2-2.9,3.9-5.1,5.1c-264.6,0-529.2,0-793.7,0C94.6,1246.7,94.6,1246.7,94.6,1233.2z"/>
		<path class="st0" d="M444.9,141.6c4.2,2.8,8.5,5.4,7,11.7c-1.5,6.3-6.7,7.2-11.7,7.9c-21.5,3-42.7,7.3-63.2,14.3
			c-23.1,7.9-44.6,18.6-64,33.4c-1.6,1.2-3.1,2.5-4.8,3.4c-4.6,2.2-8.9,1.7-12.1-2.4c-3.2-4.1-2.9-8.7,0.7-12.3
			c3.3-3.4,7.4-6.1,11.3-8.8c33.3-23.4,70.8-36.4,110.5-43.7c3.5-0.6,7-0.6,9.5-3.5C433.7,141.6,439.3,141.6,444.9,141.6z"/>
		<path class="st2" d="M901.9,1246.7c1.5-1.9,2.6-4.2,5.1-5.1C907.8,1245.9,906.1,1247.6,901.9,1246.7z"/>
		<path class="st0" d="M302.4,832.8c0,8.2,0.4,16.4-0.1,24.5c-1.8,30.6-32.5,47.5-59.5,32.9c-5.8-3.1-10.8-7.2-15.4-11.8
			c-14.4-14.7-28.8-29.4-43.1-44.1c-4.6-4.7-8.3-9.9-2.6-16.1c4.4-4.8,10-3.8,16.6,3.1c12.6,12.9,25.1,25.9,37.6,38.8
			c4.7,4.9,9.5,9.6,15.6,12.8c15.9,8.4,30.8,0.1,31.5-17.9c0.5-12.9,0.1-25.9,0.2-38.9c0-2.8,0-5.6,0-8.4c0.2-6.6,2.3-12.2,9.9-12.1
			c7.2,0.1,9.1,5.7,9.2,11.8C302.5,815.9,302.4,824.4,302.4,832.8C302.4,832.8,302.4,832.8,302.4,832.8z"/>
		<path class="st0" d="M762.9,827.5c6.5,5.5,5.1,11,0.2,16.7c-22,25.9-51,37.7-84,41.6c-13.2,1.5-26.4,1-39.6,0.6
			c-6.3-1.2-12.5-2.5-18.9-3.5c-5.7-0.9-8.6-4.5-8.1-9.9c0.5-5.7,3.9-9.3,10.2-8.7c10.9,1,21.6,3.2,32.6,3.4
			c24.4,0.5,47.8-3.6,69.1-15.6c10.7-6,20.8-13.4,26.8-24.8C755.2,825,759.1,824.6,762.9,827.5z"/>
		<path class="st3" d="M871.4,541.2c-4.8,25.1-15.9,47.7-36,65.2c-14.8,12.9-32.2,20.4-51.4,23.6c-6.3,1.1-11.6-0.3-13.1-7.2
			c-1.6-7.2,3.2-10.2,9.4-11.4c40.2-7.8,63.1-33.1,72.2-72.1c1.3-5.7,3.8-10.4,10.6-9.7C869.1,530.2,871.3,534.5,871.4,541.2z"/>
		<path class="st3" d="M496.3,768c-9.8-0.3-19.7,0.1-29.5-1.6c-6.1-1.1-10.2-4-9.5-10.6c0.7-6.6,5.5-8.9,11.6-8.3
			c37.2,3.9,73.6-1.2,109.7-9.9c6.3-1.5,11.8,0.3,13.1,7.1c1.3,6.6-2.9,10.7-9.2,12C554,762.9,525.5,768.4,496.3,768z"/>
		<path class="st3" d="M195.1,628c-0.9,11,0.2,20.3-2.4,29.4c-4.4,14.9-22.1,25.5-37.2,22.1c-5-1.1-8-4.3-7.9-9.5
			c0.1-4.7,2.7-7.9,7.5-8.9c0.3-0.1,0.6-0.1,0.8-0.2c19.7-4.8,19.7-4.8,19.9-25.6c0.1-8.4,0.1-16.9,0.2-25.3
			c0.1-6.5,2.7-11.2,9.7-11.2c6.7,0,9.2,4.7,9.4,10.7C195.3,616.2,195.1,623,195.1,628z"/>
		<path class="st3" d="M145.3,473.7c-6.9,0.1-11.9-5.9-9.2-12.5c9.6-24.2,24.1-44.3,49.4-54.6c6-2.4,11.7-3,15.2,3.9
			c2.8,5.6-0.2,10.3-8.2,13.8c-18.5,7.9-29.2,23-37.2,40.6C153.2,469.2,151.4,473.9,145.3,473.7z"/>
		<path class="st3" d="M832.5,427.9c-8.2,0-16.3,0.1-24.5,0c-6.3-0.1-10.3-3.1-10.1-9.8c0.2-6.3,4.2-9,10-9.1
			c17.1-0.1,34.3-0.2,51.4,0c6,0.1,10.5,3,10.2,9.8c-0.2,6.3-4.5,8.9-10.1,9C850.5,428.1,841.5,427.9,832.5,427.9z"/>
		<path class="st3" d="M718.4,663.3c-7.1-0.5-11.8-8.6-7.3-14.2c8.5-10.5,17.8-20.4,27.1-30.1c3.4-3.5,7.9-2.4,11.4,0.8
			c3.5,3.1,5.1,7.6,2,11.3c-8.9,10.5-18.4,20.6-27.7,30.7C722.6,663.4,720.4,663.3,718.4,663.3z"/>
		<path class="st4" d="M362,707c-3.3-4.8-5.7-9.9-6.9-16.8c4.9,2.7,8.8,4.8,11.6,8.5C364.8,701.3,362.2,703.5,362,707z"/>
		<path class="st5" d="M762.9,827.5c-3.8-1.5-7.7-0.7-11.6-0.2c1.1-1.8,2.2-3.6,3.4-5.5C758.1,822.6,760.9,824.4,762.9,827.5z"/>
		<path class="st6" d="M475.4,716.3c-44.1-2.9-82.9-19.3-117.7-45.8c-28.3-21.5-52-47.7-74.1-75.4c-6.4-8-14.2-13.4-25.4-12.1
			c-21.8,2.6-40.9-3.4-57.5-18.1c-11.7-10.4-19.5-23.3-22.5-38.3c-5.5-27.4,1.6-51.5,22-71.1c14.3-13.7,31.8-20.3,51.3-18.8
			c16.9,1.3,27.1-5.9,37.5-18.4c24.6-29.8,50.7-58.4,83.7-79.7c28.5-18.3,59-30,92.6-34.3c36-4.7,71.5-2.9,106.1,7.4
			c28.3,8.5,53.6,23.4,77.1,41.5c28.1,21.6,49.1,49.9,73.1,75.2c5.4,5.7,11.2,8.6,19.3,8.1c15.8-0.9,31.3,0,45.6,8.3
			c21.3,12.4,33.3,30.5,37.2,54.8c6.3,38.7-21.3,74.1-54.9,82.1c-7,1.7-14.1,2.1-20.9,1.1c-16.5-2.6-26.5,6.5-35.5,17.9
			c-30,37.4-63,71.7-106.5,93.4c-21.7,10.8-44.7,18.6-69.4,21.3c-10.5,1.2-21.2,0.2-31.7,2.7c-9,2.1-18.3-1.9-27.5-1.9
			c1.5-3.3,4.4-1.6,6.6-1.7c16.2-0.6,32.5,1,48.7-1.7c2.7-0.4,5.4-0.7,6.6-1.1c-20,3.4-41.7,3.4-63.4,1.7
			C474.5,713.5,477,715.7,475.4,716.3z"/>
		<path class="st6" d="M641.3,968c-38-2.3-75.2-8.3-111.2-21.7c-42.3-15.8-81-37.8-116.5-65.5c-34.5-27-63.9-58.6-88.1-95
			c-26.9-40.4-44.7-84.4-50.9-132.6c-1.5-11.6-3-23.4-1.9-35.3c0.2-1.8-0.9-4.2,1.7-5.1c2-0.8,4.1-0.3,5.3,1.5
			c15.4,22.8,40.9,37.2,52.6,63c6,13.2,8.5,27.7,15.2,40.8c13.4,26,29.8,49.8,48.8,72.1c31.2,36.5,68.6,64.9,110.9,87.2
			c34.2,18.1,70.3,29.6,108.7,34.9c20.2,2.8,40.4,4.3,60.4,2.7c32.7-2.7,65.1-8.4,91.8-30c18.5-14.9,28.8-34.5,30.9-58.2
			c1.7-19.6-1.5-38.3-13.7-54.2c-16-20.8-37.6-32.1-63.8-28.2c-20.4,3.1-38.8,20.5-41.7,46.7c-1.2,10.6-3.5,21-14.9,25.3
			c-17.5,6.7-36.7-2.1-37-22.9c-0.6-49.6,38-94.3,86.2-101.9c65.7-10.3,127.6,40.3,135.2,103.8c5.8,48.4-5.7,90.9-41,125.1
			c-23.2,22.5-52.1,35.4-83.8,41.5c-26.7,5.2-53.6,8.5-80.9,6c9.5-3.8,19.2-2.4,28.8-1.4C662,965.4,651.6,964.8,641.3,968z"/>
		<path class="st6" d="M223,691.6c6.8-27.4,5.4-55.3,5.2-83.1c-0.1-10.1,1.1-11.7,10.9-9.3c4.9,1.2,10.2-0.4,14.8,2.4
			c0.5,1,0.7,2.1,0.7,3.2c-0.5,70.2-0.1,140.3-0.2,210.5c0,3.7,0.3,7.4-0.4,11c-0.5,2.8-1.3,5.8-5.5,4.1
			c-19.8-17.6-37.7-37.1-56.3-55.9c-14.6-14.8-29-29.9-43.6-44.7c-3.3-3.3-6.8-6.6-4.4-11.7c2.1-4.7,6.8-4.3,11-4.2
			c14.9,0.5,29.7-0.4,44.3-3.9c-3.2,5.6-9.4,5.2-14.2,5.7c-9.8,1-19.6,3.2-27.4,2.1c10.4,0.3,22.8-1,35.1-3.7
			c2.2-0.5,6.5,0.6,6.4-4.1c8.3-3.6,15.5-9,22-15.2c6.4-3.4,6.9-10.1,7.6-15.9c0.6-4.7,1.4-9.4,2-14.1c0-8.1,0-16.3,0-24.4
			c0,8.3,0,16.6,0,24.9c-2.1,6.7-1.1,13.8-3.4,20.4C226.6,688.3,227.1,691.8,223,691.6z"/>
		<path class="st7" d="M253.7,603.6c0.1-0.7,0.1-1.3,0.2-2c0.6,0,1.1,0.1,1.6,0.3c1.1,2.1,0.7,4.4,0.7,6.6c0,72.8,0,145.6,0,218.5
			c0,2.2,0.4,4.5-0.6,6.7c-2.8,3.2-4.4,1.8-5.6-1.4c4.2-2.3,2.8-6.4,2.8-9.9c0.1-69.9,0-139.8,0.1-209.7
			C252.9,609.7,252.1,606.5,253.7,603.6z"/>
		<path class="st8" d="M253.7,603.6c0,74,0,148.1-0.2,222.1c0,2,3.5,7.7-3.5,6.6c-0.5-0.6-1-1.3-1.5-1.9c5.6-1.3,3.4-5.9,3.4-9
			c0.1-69.4,0.1-138.8,0.2-208.2C252.1,610,250.8,606.4,253.7,603.6z"/>
		<path d="M255.6,833.7c0-77.2-0.1-154.5-0.1-231.7c2.6,2.6,1.5,5.9,1.5,8.9c0.1,71.3,0.1,142.7,0,214
			C257.1,827.8,258.1,831.1,255.6,833.7z"/>
		<path class="st9" d="M475.4,716.3c-0.2-3.1-3.6-2-5.7-4.2c26.2,3,51.5,2.3,76.8-1.6c-18,5.8-36.5,4.8-54.9,4.9
			c-4.7,0-9.5-1.1-14.1,0.9C476.7,716.3,476.1,716.3,475.4,716.3z"/>
		<path class="st10" d="M641.3,968c11-5.9,22.2-4.6,33.5,0.1c-10.5,0-20.9,0-31.4,0C642.8,968.1,642.1,968.1,641.3,968z"/>
		<path class="st6" d="M223,691.6c4.8-4.3,4.5-10.3,5.2-15.8c0.4-3.2,0-6.6,1.8-9.6c0.6-0.8,1.1-0.8,1.7,0
			c-1.2,7.1-2.1,14.3-3.6,21.4c-0.7,3.5-1.9,7.3-6.7,7.3C221.9,693.8,222.5,692.7,223,691.6z"/>
		<path d="M417.7,1097.9c-4.1,0.2-3.7,2.8-4.3,4.4c-10.4,29.4-21.5,58.7-29.4,89c-2.2,8.4-6.8,10.7-14.8,9.3
			c-17.6-3-29.8-12.4-36.2-29.2c-9-23.5-18.2-47-28.3-73c-0.2,5.1-0.5,7.7-0.4,10.3c0.2,32.4-0.8,64.9,1.8,97.2
			c0.8,10.1-1.3,11.5-11,9.7c-1.1-0.2-2.2-0.6-3.3-0.9c-27.7-6.3-31-9.4-34.9-37.3c-7.7-54.8-11.1-110-11.8-165.3
			c-0.1-11.7,2.4-13.9,14.1-13c17.3,1.3,33.8,5.8,50,11.9c11.6,4.4,17,14.2,20.7,25.2c7.5,22.1,14.8,44.3,22.4,66.4
			c1,2.8,1,6.2,4.3,8.6c8.9-31.6,20-62.3,30.6-93.1c0.6-1.6,1.1-3.2,1.7-4.8c7-18.3,12.7-21.2,31.4-16c15.7,4.4,31.6,8.3,46.5,15.2
			c10.8,5,13.3,8.6,12,20.4c-4.8,42.9-9.4,85.7-12.8,128.7c-1.1,14.1-1.8,28.1-2.9,42.2c-1,11.7-3,13.1-14.3,10.7
			c-29.8-6.3-32.5-9.5-32.5-39.7c0-23.1-0.3-46.3,1.4-69.4C417.9,1103.1,417.7,1100.5,417.7,1097.9z"/>
		<path d="M497.3,1178.2c-1.6-37.2-7.5-74-10.8-111c-0.9-10.1-1.5-20.2-2.1-30.3c-0.3-5.2,1.4-9.4,6.2-12
			c25.3-13.9,51.2-26,80.7-27.5c20.4-1,37.6,5.1,51.3,20.6c9,10.2,17.6,20.5,24,32.5c9.2,17.2,7.9,33.3-3.5,49.1
			c-14,19.4-33.5,31.5-54.2,42c-11.1,5.6-22.6,10.3-34.6,13.3c-8.7,2.2-10.9,6.8-10.5,15.1c0.6,12.6,0.1,25.4,0.2,38
			c0.1,7.5-3.1,10.4-10.5,8.3c-7-2-14.3-3.3-21.1-5.9c-12.5-4.6-15.1-9-15.2-22.2C497.3,1185,497.3,1181.6,497.3,1178.2z"/>
		<path d="M184.8,1094.5c3.4-0.2,6.8-0.3,10.1-0.7c9.4-0.9,16.5,2.8,21.3,10.9c3.3,5.6,6.1,11.4,9.1,17.1c3.1,5.9,1,8.9-5.2,10.1
			c-17.2,3.1-34.3,6.7-51.5,9.4c-6,1-8.5,3.2-8,9.2c0.2,2.8-0.1,5.6-0.4,8.4c-1.1,12.9-1.2,12.8,12.1,10.9
			c10.3-1.5,20.7-2.7,31.1-3.7c8.2-0.8,15.1,2,19.8,8.9c3.6,5.4,6.8,11,10.2,16.6c2.9,4.8,1.8,8.2-3.8,9.3
			c-23.8,4.7-47.4,10.1-71.4,13.7c-19.5,2.9-47.2-21.5-48.3-41.4c-2.4-43.9-4.4-87.9-6.7-131.8c-0.4-7.3-1-14.6-1.7-21.9
			c-0.4-3.9,0.7-5.7,5-6.9c31.3-8.7,63.4-13.1,95.5-17.6c12-1.7,21.4,3.4,28.2,13.3c4.2,6.1,6.9,12.9,9.5,19.7c3,8,1.2,10.9-7.2,12
			c-17.9,2.3-35.8,4.8-53.7,6.4c-7.5,0.7-10.3,3.5-10.6,10.8c-0.4,10.4-1.6,20.8-2.8,31.2c-0.7,5.7,1,7.8,6.9,6.7
			c4.1-0.7,8.4-0.6,12.6-0.9C184.8,1094.4,184.8,1094.5,184.8,1094.5z"/>
		<path class="st11" d="M638,1170.2c0.1,9.5-7.5,17.3-17,17.3c-9.6,0.1-17.2-7.4-17.2-17c-0.1-9.7,7.3-17.1,16.9-17.2
			C630.3,1153.2,637.9,1160.6,638,1170.2z"/>
		<path class="st12" d="M837.8,1011.4c0,9.5-7.7,17.1-17.2,17.1c-9.5,0-17.1-7.7-17-17.3c0-9.6,7.5-17,17.2-17
			C830.4,994.3,837.8,1001.7,837.8,1011.4z"/>
		<path class="st12" d="M351.6,1036.1c-9.5,0.1-17.2-7.5-17.3-17.1c-0.1-9.6,7.4-17.4,16.9-17.5c9.3-0.1,17.3,7.7,17.4,17.1
			C368.7,1027.9,360.7,1036.1,351.6,1036.1z"/>
		<path class="st13" d="M726.6,1025c5.2,0.5,8.8,3.2,9,8.4c0.3,5.6-2.9,9.3-8.6,9.4c-5.1,0.1-8.8-2.9-9-8.2
			C717.7,1029.1,721,1025.8,726.6,1025z"/>
		<path class="st13" d="M785.8,1014.1c-5.5-0.6-8.9-3.6-8.7-9.3c0.2-5.2,3.6-8.4,8.8-8.4c5.7,0,8.9,3.7,8.8,9.2
			C794.6,1010.8,791.1,1013.6,785.8,1014.1z"/>
		<path class="st14" d="M223.7,1155.1c-5.4-1.1-8.8-4.1-8.3-9.8c0.5-5.1,4-8.3,9.2-8c5.6,0.4,8.9,4,8.4,9.6
			C232.5,1152.1,228.9,1154.7,223.7,1155.1z"/>
		<path class="st15" d="M647.6,1135.2c-5.4-0.8-8.6-3.9-8.2-9.5c0.4-5.3,3.7-8.2,9-7.9c5.7,0.2,8.7,3.8,8.3,9.4
			C656.4,1132.4,653,1135,647.6,1135.2z"/>
		<path class="st16" d="M225.4,1075.3c-0.8,5.1-3.6,8.5-8.8,8.3c-5.4-0.2-9-3.5-8.7-9.2c0.2-5.2,3.5-8.4,8.7-8.4
			C222.2,1066.1,225,1069.7,225.4,1075.3z"/>
		<path class="st17" d="M206,1065.7c-1,5.3-3.6,8.7-8.9,8.7c-5.6,0-9.1-3.3-9-8.9c0.1-5.1,3.4-8.3,8.6-8.5
			C202.6,1056.9,205,1060.8,206,1065.7z"/>
		<path class="st17" d="M356,1043.3c5.3,0.6,8.6,3.5,8.7,8.6c0.1,5.5-3.2,9-9,8.9c-5.2-0.1-8.5-3.3-8.6-8.5
			C347,1046.7,350.5,1043.8,356,1043.3z"/>
		<path class="st15" d="M648,1197.4c-0.6,5.5-3.5,8.9-9.1,8.9c-5.3,0-8.4-3.4-8.6-8.5c-0.1-5.1,2.8-8.6,8.1-8.9
			C644.1,1188.6,647.1,1191.9,648,1197.4z"/>
		<path class="st17" d="M599.4,1176.3c-0.5,5.2-3.2,8.7-8.4,8.8c-5.5,0.1-9.1-3.1-9.1-8.8c0-5.2,3.2-8.6,8.3-8.8
			C595.8,1167.3,598.8,1170.8,599.4,1176.3z"/>
		<path class="st17" d="M201.1,1140.1c5.2,0.5,8.7,2.9,9,8.2c0.3,5.7-2.9,9.2-8.4,9.5c-5.1,0.2-8.6-2.8-8.9-8.1
			C192.4,1144.1,195.8,1141.2,201.1,1140.1z"/>
		<path class="st3" d="M172.2,290.2c-10.4,0-20.9,0.1-31.3-0.1c-6.5-0.1-12.2-2.1-12.1-9.9c0.1-7.7,5.9-9.6,12.4-9.6
			c20-0.1,40-0.2,60.1,0c4.9,0,8.6-1.3,12-4.8c12.7-12.8,26.6-24.4,40.5-35.9c7.4-6.2,12.7-6.6,16.9-1.5c4.1,4.9,2.7,10.1-4.7,16.4
			c-14.1,12.1-28.4,24-41.8,37c-6,5.8-13.2,8.3-21.5,8.4C192.5,290.2,182.3,290.2,172.2,290.2z"/>
		<path class="st18" d="M869.4,1015.4c-5.6,19.8-11.1,39-16.5,58.2c-0.9,3.3-3,4.9-6.3,3.8c-2.9-1-3.5-3.4-2.7-6.2
			c5.4-19.2,10.7-38.4,16.2-57.7c0.9-3.1,3-4.9,6.4-3.8C869.5,1010.8,869.8,1013.3,869.4,1015.4z"/>
		<path class="st18" d="M737.5,1109.9c4.9-17.5,10.3-36.7,15.8-55.9c0.9-3,2.8-5.1,6.3-3.7c2.8,1.1,3.5,3.3,2.7,6.2
			c-5.4,19.2-10.8,38.4-16.2,57.6c-0.7,2.6-2.4,4.7-5.5,4.1C737.1,1117.4,736.3,1114.8,737.5,1109.9z"/>
		<path class="st19" d="M768.2,1039.3c-1.1,3.3-0.7,8.1-6.2,8.2c-3,0.1-4.8-2-4.4-4.9c0.6-3.7,0.5-8.4,5.7-9
			C766.8,1033.3,768.2,1035.7,768.2,1039.3z"/>
		<path class="st20" d="M846.2,1089c-0.8,3-0.7,7.7-5.7,8.3c-3.1,0.3-5.3-2.2-4.6-5.5c0.7-3.6,0.9-8.4,6.2-8.6
			C844.8,1083.1,846.6,1085.2,846.2,1089z"/>
		<path class="st6" d="M238.5,376.9c-2.7,2.4-5.9,1.3-8.9,1.3c-28.4,0.1-56.9,0.1-85.3,0.1c-20.9,0-32.4-9.8-32.6-27.7
			c-0.2-19.2,11.9-30.8,32.7-31c23.4-0.2,46.8-0.5,70.1,0.2c9.9,0.3,17.5-3.5,24.2-9.7c18.6-17,36.5-34.9,56.1-50.9
			c26.4-21.6,54.9-39.3,86.8-51.8c25.2-9.9,51.2-15.6,77.8-19.4c5.8-0.8,11.8-0.4,17.7-0.6c1.4-1.2,3.1-0.8,4.7-0.7
			c3.3,1.1,6.5,0.8,9.8-0.1c23-0.9,45.9,0.9,68.6,5.1c50.8,9.3,96.6,29.7,137.3,61.5c15.5,12.1,30.4,24.9,44.3,38.9
			c7.3,7.4,15.3,14,23,21.1c5.1,4.7,11.6,7.7,19.2,7.3c5.9-0.3,11.8-0.7,17.7,0.5c15.1,0.6,30.1-0.1,45.2,0.4
			c6.7,1.2,13.5,1.7,20.3,1.6c11.8,2.2,17.3,7.8,19.5,19.6c0.6,5.5,0.7,11-0.1,16.5c-3.5,10.4-13.4,18.8-23.2,18.8
			c-32.4,0.1-64.7,0.1-97.1,0.1c-1.1,0-2.2-0.2-3.2-0.8c-14.8-2.2-26.2-10.7-37.1-19.9c-21.9-18.4-41.3-39.6-63.9-57.2
			c-32.2-25.3-67.7-43.3-108.3-50.3c-0.8-0.1-1.4-0.8-2.1-1.2c-10.1-2.3-20.4-2.8-30.6-4.5c-12.5-1.1-25-0.6-37.5-0.3
			c-31.9,3.3-63.2,8.9-92.4,22.8c-20.1,9.6-39,21.2-56.2,35.4c-1.5,1.2-2.8,2.8-4.8,3.4c-4.4,1.8-8.3,4-9.8,9
			c-17.4,15.4-33.5,32.3-51.5,47C259.7,368.4,249.1,372.7,238.5,376.9z"/>
		<path class="st7" d="M521,243.1c10.2,1.5,20.8,1.2,30.6,5.1c-19.8-2.1-39.5-3.9-59.5-3.4c-59.2,1.3-111.4,21.2-157.3,58.5
			c-20,16.3-38,34.9-57.2,52.1c-11.3,10.1-23.6,18.9-39.1,21.6c10.1-6.8,22.3-9.8,31.4-18.5c11.9-11.4,24.3-22.2,36.5-33.3
			c4.5-4.1,8.9-8.3,13.4-12.5c2-3.7,5.1-6.2,8.5-8.5c6.3-2.1,10.4-7.4,15.5-11.1c26.3-19.3,55.1-33.6,86.5-42.1
			c16.9-4.5,34.5-6.7,52-7.9C495.2,241.9,508.1,241.8,521,243.1z"/>
		<path class="st21" d="M268.3,484.9c22.6,3.3,38.3-10.5,53.1-27.5c23-26.4,45.2-53.9,74.4-74c35.4-24.4,74.8-35.2,117.6-32.1
			c40.7,3,76.8,17.5,108.1,44.6c21.1,18.3,38.7,39.7,57.1,60.4c9.6,10.9,19.6,21.8,34,26.8c11.2,3.9,22.9,1.2,34.3,1.7
			c6.6,0.3,12.7,1.5,18,5.7c8.8,6.9,12.1,18.6,8.9,26.8c-3.9,9.7-13.7,17.1-24.6,17.3c-9.9,0.2-19.9-1-29.6,0.5
			c-15.7,2.4-26.8,12.7-37.1,24.3c-25.8,29.1-49.6,60.4-83.4,81.2c-27.3,16.9-56.9,26.6-89.4,27.9c-29.7,1.2-58.1-3.9-85.1-15.7
			c-16.7-7.3-32.3-16.8-45.7-29.4c-22.5-21.2-42.7-44.6-63.1-67.7c-11.8-13.3-26.3-22.3-45.5-21.2c-8.3,0.5-16.8,1.5-25.1-1.3
			c-12.7-4.2-20.2-14.6-18.6-26.3c1.4-10.8,13.8-21.5,25.5-21.9C256.6,484.7,261.4,484.9,268.3,484.9z"/>
		<path class="st22" d="M522.8,312.6c11.6,2.8,23.3,5.3,34.8,8.4c29.7,8.1,56.3,22.4,80.2,41.8c1.3,1,2.9,1.6,4.3,2.4
			c2.7,0.8,4.9,2.1,5.3,5.2c6.7,7.4,15.3,13.1,21.1,21.5c0.4,7.5-4.6,13.2-12.3,14c-7-4.5-12.5-10.7-18.4-16.5
			c-13.8-13.2-29.1-24.9-46.4-33.2c-9.1-4.3-17.9-9.5-27.7-12.3c-2.7-0.8-5.3-2-8.2-1.1c-2.5-0.9-5.3-1.4-7.3-3.4
			c-7.5-0.6-15-1.5-22-4.8c-2.8,1-5.6,1.4-8.4-0.2c-2.6-2.4-5.9-1.6-8.9-1.7c-7.6-0.3-11.9-4.1-13-11.6c0.4-1.9,1.1-3.7,2.6-5.1
			c1.4-1,2.7-1.9,4.1-2.9C509.2,310.5,516,311.6,522.8,312.6z"/>
		<path class="st0" d="M402.8,663.6c-0.3,5.5-7.2,9.2-12.7,6.9c-12.2-5.1-23.4-12.1-33.6-20.4c-21.8-17.8-40.6-38.4-56.2-62
			c-3.8-5.7-3.8-9.7,1.6-13.5c6.2-4.4,8.5,1.5,11.1,5c23.1,31,48,59.9,84.1,76.7C400.4,657.8,402.5,660.1,402.8,663.6z"/>
		<path class="st23" d="M759.2,449.9c11.2,4,22.9,6.7,32,15.1c5.4,5,10,10.5,12.8,17.4c2.3,5.7,1.6,10.6-4.3,13.5
			c-6.2,3.1-11.7-0.1-13.8-5.1c-5.6-13.5-16.9-17.1-29.3-19.8c-5.7-1.3-12.2-1-14.8-8.1c-3-2.5-1.2-4.6,0.6-6.7
			c3.2-3.9,7.1-6.4,12.2-6.6C756.2,448.6,757.7,448.2,759.2,449.9z"/>
		<path class="st0" d="M196.1,501.9c6.1,1.4,7.6,6.6,8.8,11.8c4.6,20.2,16.1,33.4,37,37.4c2.7,0.5,5.2,2,8,2.7
			c5.4,1.3,9,4.1,7.1,10.1c-1.8,5.3-6.3,6.6-11.5,5.5c-30.7-6.4-50.2-24.3-57.1-55.2C186.9,508,190.8,501.6,196.1,501.9z"/>
		<path class="st3" d="M484.9,700.5c-22.3-0.8-43.8-4.6-63.8-15.2c-4.3-2.3-8.5-4.9-6.2-10.1c2.2-5,6.2-6.8,12.4-4.1
			c20.8,8.8,42.6,13.7,65.3,13.5c5.6,0,11,2,10.8,8c-0.2,5.7-4.9,8.4-11,7.9C490,700.3,487.5,700.5,484.9,700.5z"/>
		<path class="st24" d="M698.7,452.9c-6.2-8.5-15.1-14.6-21.1-23.5c-7.3-10.7-7.6-11.4,2.8-20.2c2.2-1.3,4.4-1.7,6.5,0.3l-0.4,0
			c3,0.7,4.7,2.6,5.4,5.5c4.9,5.6,9.8,11.3,14.8,16.8c7.3,8.2,7.1,13.2-1.1,21.2C703.3,454.8,701,453.3,698.7,452.9z"/>
		<path class="st25" d="M480.5,671.3c19.2,0,38.5,1.1,57.5-2.9C519,673.2,499.9,675,480.5,671.3L480.5,671.3z"/>
		<path class="st26" d="M182.2,529c-5.6-12.5-5.5-26.6,0.6-36.9C179.5,505.4,179.8,517.1,182.2,529z"/>
		<path class="st27" d="M502.7,683.6c-11.5-5.1-24.4,0.6-35.5-5.4C478.9,681.4,491.6,677.3,502.7,683.6z"/>
		<path class="st28" d="M245.4,438c7.8,0,15.5,0,23.3,0c0,0.5,0,1,0,1.5c-7.8,0-15.6,0-23.4,0c-0.5-0.4-0.6-0.7-0.4-1
			C245,438.1,245.2,438,245.4,438z"/>
		<path class="st29" d="M757.9,439c-6,0-12,0-18,0c0-0.2,0-0.4,0-0.6c6,0,12,0,18,0C757.9,438.6,757.9,438.8,757.9,439z"/>
		<path class="st30" d="M292.3,418.3c2.8-2.5,5.6-4.9,8.5-7.5C299.1,414.5,295.9,416.6,292.3,418.3z"/>
		<path class="st30" d="M281.6,431.3c1.2-3.5,3.5-5.9,7.8-8.6C287.6,427.7,284.7,429.6,281.6,431.3z"/>
		<path class="st31" d="M242.2,571.8c3.7,0,7.5,0,11.2,0c0,0.3,0,0.6,0,0.8c-3.7,0-7.5,0-11.2,0
			C242.2,572.4,242.2,572.1,242.2,571.8z"/>
		<path class="st31" d="M245.4,438c-0.1,0.5-0.1,1-0.1,1.5c-3.1,3.2-6.8,0.9-10.2,0.9C238.5,439.6,241.9,438.8,245.4,438z"/>
		<path class="st26" d="M802.5,460.4c-3.2-0.1-4.9-2.1-6.4-5.4C799.8,455.6,800.8,458.4,802.5,460.4z"/>
		<path class="st8" d="M734.4,483.2c-5,0-7.7,0.8-10.6-0.8C727,481.5,729.9,481.3,734.4,483.2z"/>
		<path class="st30" d="M721,586.9c1.2-2.5,2.3-4.6,5.5-4.6C725.4,584.9,724.3,586.9,721,586.9z"/>
		<path class="st8" d="M323.6,636.1c3.7,0.7,5.2,2.3,6,5.6C326.7,640.8,325.4,639,323.6,636.1z"/>
		<path class="st26" d="M480.5,671.3c-2.7,0-5.4,0-8.2,0C475.1,669.6,477.9,668.8,480.5,671.3L480.5,671.3z"/>
		<path class="st32" d="M647.5,370.4c-1.8-1.7-3.5-3.4-5.3-5.2C645.4,365.4,648.8,365.5,647.5,370.4z"/>
		<path class="st30" d="M640.3,668.2c-0.8,2.7-2.1,3.9-4.8,4.6C636,670.1,637.3,668.9,640.3,668.2z"/>
		<path class="st33" d="M479.2,304.9c-1.9,1.3-4.7,1.2-4.9,0.4c-0.6-2.2,1.6-0.9,2.6-1.1C477.5,304.1,478.3,304.6,479.2,304.9z"/>
		<path class="st34" d="M742.4,456.3c-0.9,2.2-1.2,4.4-0.6,6.7C738.2,460.5,738.2,458.2,742.4,456.3z"/>
		<path class="st32" d="M759.2,449.9c-1.5-0.1-3-0.2-4.5-0.3c1.3-2,3.3-1.8,5.2-1.7c0.6,0,1.8-0.2,1.5,1
			C761.1,449.5,759.9,449.6,759.2,449.9z"/>
		<path class="st9" d="M462,702c2,0,4.2,0,6.3,0c0.1,0.4,0.2,0.7,0.1,0.7C466.1,703.9,463.8,704,462,702z"/>
		<path class="st9" d="M461.7,701.6c-2,0-4.2,0-6.4,0c-0.1-0.4-0.2-0.7-0.1-0.7C457.7,699.7,459.9,699.6,461.7,701.6z"/>
		<path class="st22" d="M810.9,776c-3.2-2.3-6.9-4.7-8-8.4c-3.8-12-12.8-19.8-21.2-28.2c-5.7-5.8-13.4-9.1-20.7-10.5
			c-6.8-1.3-12.8-5.3-19.8-5c-6.2,0.9-12.4,1.5-18.5-0.4c-8.8-8-8.8-12,0-19.6c7.3-2.3,14.6-1.6,21.9-0.4
			c10.4,3.3,21.2,4.7,31.2,9.3c21,9.6,36,24.9,45.6,45.9c3.4,7.4,2.1,12.8-4.5,17.2C814.8,777.7,812.9,777.5,810.9,776z"/>
		<path class="st0" d="M295.6,682.7c-0.1-5.9,1.4-10.3,6.1-11c4.9-0.7,7.2,3.9,8.7,7.7c5,12.4,9.5,25.1,14.5,37.5
			c13.2,33.3,30,64.5,56.6,89.3c2.4,2.3,5.3,4.5,4.4,8.5c-0.7,3.3-3.1,5.6-5.9,6.7c-3.2,1.2-5.7-1.3-8-3.4
			c-17.7-15.5-31.4-34.4-42.8-54.7c-13.6-24.2-24.6-49.6-32.5-76.2C296.2,685.3,295.8,683.4,295.6,682.7z"/>
		<path class="st23" d="M817.2,816.9c0.4-2,0.3-3.8-1.5-5.1c-1.8-2.7-1-5.5-0.5-8.3c-1.3-7.6,2.2-14.1,8.3-14.6
			c7.2-0.5,10.2,4.5,11.6,10.7c0.8,3.5,0.6,7.2,2.3,10.5c1.4,7.4,1.5,14.7,0,22.1c-3,8.3-3.6,17.7-11.8,23.4
			c-2.9,1.4-5.7,2.1-8.3-0.4c-5.2-4.6-6.3-9.8-3.2-16.2c1.5-3.2,1.9-6.9,2.8-10.3C816.3,824.7,815.9,820.8,817.2,816.9z"/>
		<path class="st8" d="M800.7,798.6c4.4,9,2.6,18.5,2.2,27.9C801.7,817.3,802.9,807.8,800.7,798.6z"/>
		<path class="st30" d="M274.1,633.3c0-5.9,0-10.8,0-15.7c0-1.5,0.3-2.8,2.3-2.3c1.1,0.3,2.6,1.5,1.8,2.1
			C272.6,621.4,278,627.9,274.1,633.3z"/>
		<path class="st35" d="M744.5,703.5c-7.3,0.1-14.6,0.3-21.9,0.4C729.8,700.1,737.1,701.1,744.5,703.5z"/>
		<path class="st36" d="M837.5,832.1c0-7.4,0-14.7,0-22.1C840.4,817.4,840.4,824.8,837.5,832.1z"/>
		<path class="st37" d="M647.2,918.1c-5.3,0-10.5,0-15.8,0C636.9,916.4,642.4,916.5,647.2,918.1z"/>
		<path class="st38" d="M631.5,797.9c0-5.5,0-11,0-16.5c0.3,0,0.6,0,0.8,0c0,5.5,0,11,0,16.5C632.1,797.9,631.8,797.9,631.5,797.9z"
			/>
		<path class="st8" d="M683.4,918c-4.9,0-9.8,0-14.7,0c0-0.2,0-0.5,0-0.7c4.9,0,9.8,0,14.7,0C683.4,917.5,683.4,917.8,683.4,918z"/>
		<path class="st39" d="M722.5,723.5c6.2,0.1,12.3,0.3,18.5,0.4C734.8,726.2,728.6,726.9,722.5,723.5z"/>
		<path class="st26" d="M697.3,699.9c-3.4,1.7-6.8,3.3-10.2,5C689.5,701.2,692.9,699.3,697.3,699.9z"/>
		<path class="st38" d="M788.9,771.1c-4.1-2.6-6.2-4.6-8.7-8.9C784.8,764.4,786.9,766.4,788.9,771.1z"/>
		<path class="st26" d="M742.6,954.4c-4,1.6-6.5,3.6-10.8,2.2C735.1,955.1,737.6,953.7,742.6,954.4z"/>
		<path class="st40" d="M659.9,815.2c-3.1,2.9-6.6,1.2-10,0C653.2,815.2,656.5,815.2,659.9,815.2L659.9,815.2z"/>
		<path class="st41" d="M817.2,816.9c-0.1,3.9-0.2,7.8-0.2,11.7C814.9,824.7,814.6,820.8,817.2,816.9z"/>
		<path class="st38" d="M772,754.4c3.9,0.9,5.1,2.7,6.3,5.4C774.9,759.4,773.8,757.3,772,754.4z"/>
		<path class="st37" d="M615.4,915.8c5.2-0.8,7.8-1.2,11.3,0.1C623.2,917.1,620.5,916.9,615.4,915.8z"/>
		<path class="st42" d="M810.9,776c2,0,4-0.1,5.9-0.1c1.4,3.3-1.8,2.1-2.4,1.9C813.2,777.4,810.2,779.9,810.9,776z"/>
		<path class="st8" d="M697,916.4c-2.1,0-4.2,0-6.9,0C692.5,914.1,694.7,915.3,697,916.4z"/>
		<path class="st8" d="M597,912.4c1.8-1,3.5-1,5.7,0C600.6,913.6,598.9,913.8,597,912.4z"/>
		<path class="st8" d="M598.3,961.6c2.6-1.1,4.3-1.2,6,0C602.6,962.8,600.8,962.6,598.3,961.6z"/>
		<path class="st8" d="M606.9,914.3c2.4-1.4,4.1-0.8,6.3-0.4C611,915.5,609.3,915.2,606.9,914.3z"/>
		<path class="st43" d="M817.3,855.1c2.8,0.1,5.6,0.3,8.3,0.4C822.8,858.3,820,858.7,817.3,855.1z"/>
		<path class="st37" d="M848,830.1c0-1.6,0-3.2,0-5.1C850.4,826.9,848.7,828.7,848,830.1z"/>
		<path class="st30" d="M666.6,811.8c-1.3,3.1-3.9,3.5-6.8,3.4c0,0,0,0,0,0C661.6,813,664,812.1,666.6,811.8L666.6,811.8z"/>
		<path class="st30" d="M666.6,811.8c0.9-1.7,1.9-3.3,4-4C671.5,811.5,668.7,811.3,666.6,811.8L666.6,811.8z"/>
		<path class="st44" d="M815.3,803.5c1.3,2.7,0.7,5.5,0.5,8.3C812.9,809.2,813.3,806.4,815.3,803.5z"/>
		<path class="st3" d="M218.4,784.4c-12.2-12.4-24.4-24.8-36.8-37.1c-4.5-4.5-6-9-0.8-13.7c5.1-4.6,10.1-2.7,13.9,1.9
			c12.3,15,27.1,27.7,40.4,41.8c3,3.2,7,5.9,4.1,11.5c-2.8,5.6-7.2,5.5-12.2,4.2C223.5,790.7,221.1,787.3,218.4,784.4z"/>
		<path class="st6" d="M199.4,710.1c1.1,0.1,2.2,0.2,3.3,0.3c-16.9,8.7-35.1,8.6-53.4,7.4c10.2-0.4,20.3-1.7,30.4-2.5"/>
		<path class="st38" d="M231.7,666.3c-0.6,0-1.1,0-1.7,0c0-8.9,0-17.8,0-26.7c0.6,0,1.1,0,1.7,0
			C231.7,648.4,231.7,657.3,231.7,666.3z"/>
		<path class="st8" d="M230.4,605.7c-0.7-4.4,0.8-5.7,4.8-5C233.6,602.3,232.2,603.8,230.4,605.7z"/>
		<path class="st8" d="M248.4,602.6c-2.3,1.2-4.4,1.4-6.6,0.4C244,601,246.3,602.6,248.4,602.6z"/>
		<path class="st24" d="M398.3,1044.1c-5.3,18.8-10.7,38.1-16.2,57.3c-0.9,3.1-3,4.9-6.4,3.7c-2.8-1-3.6-3.3-2.7-6.2
			c5.5-19.2,10.9-38.4,16.3-57.7c0.7-2.6,2.4-4.8,5.5-4.1C398.2,1037.9,399,1040.5,398.3,1044.1z"/>
		<path class="st18" d="M268.3,1056.2c0.5,7,1,14,1.5,21.1c0.2,3.3-0.1,6.6-4.3,6.7c-4.1,0.1-4.7-3.1-5-6.4
			c-1.5-18.8-3-37.6-4.5-56.4c-0.3-3.7,0-7.3,4.5-7.5c4.5-0.2,4.9,3.6,5.1,7.2C266.3,1032.6,267.3,1044.4,268.3,1056.2
			C268.2,1056.2,268.3,1056.2,268.3,1056.2z"/>
		<path class="st45" d="M271,1104.4c-1.3,3.8,3.6,11.6-3.7,12.1c-8.3,0.6-4.3-7.8-5.4-12.3c-0.8-3.2-0.7-6.7-0.9-10
			c-0.1-3.1,1-5.8,4.5-5.9c3.5-0.1,4.8,2.4,5,5.5C270.7,1097.2,270.8,1100.6,271,1104.4z"/>
		<path class="st46" d="M375.5,1116.7c-1.4,3-0.7,8.1-6.2,8.1c-3.6,0-4.7-2.8-4.1-5.8c0.7-3.4,0.7-7.7,5.6-7.9
			C374.3,1110.9,375.8,1113.1,375.5,1116.7z"/>
		<path class="st1" d="M546.5,1111c0-17.9,1.3-35,3-52.1c0.3-3.1,1.2-5.4,4.3-6.6c11.4-4.5,23-7.5,35.4-6
			c9.9,1.2,13.6,6.5,12.1,16.3c-1.5,10-7.4,17.5-14.2,24.4C575.8,1098.6,562.2,1106,546.5,1111z"/>
		<path class="st47" d="M510.5,1100.4c0.4,3.1-0.2,5.9-3.8,6.3c-4,0.5-5.3-2.1-5.7-5.6c-2.2-19-4.5-38-6.8-57
			c-0.4-3.2-0.4-6.6,3.7-7.3c4.2-0.7,5.2,2.6,5.6,5.8C505.9,1061.9,508.2,1081.2,510.5,1100.4z"/>
		<path class="st48" d="M512.8,1127.1c0.2,3.1,0.4,4.8,0.5,6.5c0.2,3-0.3,5.9-4,6.3c-3.5,0.3-4.9-2-5.2-5.2
			c-0.5-5.9-1.2-11.7-1.7-17.6c-0.3-3.2,0.7-5.7,4.4-5.8c3.1-0.1,4.5,2,4.8,4.8C512.1,1120.2,512.5,1124.4,512.8,1127.1z"/>
		<path class="st18" d="M123.9,1056.5c0.6,9,1.1,18,1.7,26.9c0.2,3.3-0.1,6.7-4.2,6.8c-4,0.2-4.7-2.9-5-6.4
			c-1.3-19.1-2.6-38.1-4-57.2c-0.2-3.4,0.3-6.5,4.4-6.8c4.2-0.2,4.8,2.9,5,6.3C122.5,1036.3,123.2,1046.4,123.9,1056.5z"/>
		<path class="st49" d="M116.5,1100.2c-0.3-4.1,0.7-7.3,4.5-7c4.9,0.3,4.6,4.7,4.8,8.3c0.2,3.1-0.9,6-4.3,5.9
			C116.5,1107.4,116.4,1103.4,116.5,1100.2z"/>
		<path class="st22" d="M534.7,219.3c-9.8-3.5-19.9-1.5-29.8-1.6c-6-0.1-11.5-0.4-13.7-6.9c-2.1-6.1,1.8-9.9,6.3-13.1
			c3.3-1.8,6.7-1.4,10.1-0.3c5.6,0,11.3,0,16.9,0c5.6-1,11.3-1.8,16.9,0.4c0.6,0.3,1.2,0.7,1.9,1c2.8-0.6,5.6-1.2,8.4,0.3
			c13.2,4.7,27.2,5.9,40.5,10.2c48.7,15.5,90.8,41.5,127.1,77.1c4.8,4.7,10.3,8.5,14.1,14.2c3.2,4.8,4,9.2-0.2,13.6
			c-4.3,4.5-8.9,3.5-13.7,0.5c-5-3.2-8.3-8-12.4-12.1c-18.4-18.6-39.5-33.5-61.6-47.5c-12.2-7.7-25.5-12.5-38.2-19
			c-9.2-4.7-19.7-6.9-29.6-10.2c-1.6-0.5-2.6,0.7-3.6,1.7c-2.7-3.5-7.8-1.8-10.7-5c-5.7-1-11.3-2-17-3.1
			C542.5,220.3,538.5,221.1,534.7,219.3z"/>
		<path class="st23" d="M859.7,362.8c-3.1-2.8-4.4-7.8-9.6-8.1c-17-1.6-34-0.2-50.9-0.8c-3-0.1-6.1,1-8.9-1
			c-5.5-2.5-7.5-7.1-6.2-12.6c1.2-5.5,5.8-7.2,10.9-7.2c18.8-0.1,37.6-0.1,56.4,0c10.8,0.1,18.5,5.5,23.5,14.9
			c1.2,3.6,1.9,7-1.1,10.1c-1.9,1.6-3.8,3.2-5.6,4.8C865.2,364.8,862.4,365,859.7,362.8z"/>
		<path class="st0" d="M358.8,262.2c0.1,3.3-2.1,4.9-4,6.5C345,276.9,335,285,325,293.1c-13.9,11.3-27.6,22.8-40.4,35.5
			c-1.2,1.2-2.3,2.5-3.7,3.5c-3.7,2.8-7.4,5.2-11.6,0.7c-4-4.3-2.5-8.7,0.7-12c6.9-7,14-13.8,21.6-20c17.4-14.4,35.2-28.6,52.8-42.7
			c2.9-2.3,5.9-4.3,9.9-2.2C357.1,257.3,358.2,259.7,358.8,262.2z"/>
		<path class="st3" d="M184.3,366.9c-11.5,0-23.1,0.1-34.6,0c-9.3-0.1-16.8-4.2-21.5-12.3c-2.8-4.9-3.7-10.7,2-14.1
			c5.4-3.3,8.9,0.9,11.6,5.1c4,6.3,10.7,5.5,16.4,5.6c20.2,0.3,40.5,0,60.7-0.1c3.4,0,6.7-0.3,9.4,2.6c2.4,2.7,2.7,5.8,1.4,8.6
			c-1.7,3.6-5.4,4.6-9.2,4.6C208.5,366.9,196.4,366.9,184.3,366.9z"/>
		<path class="st24" d="M738.2,322.8c6.3-7.8,10.9-8.6,18.9-2.6c4,3,7.4,6.8,10.9,10.4c3.6,3.6,3,7.6,0,11.2c-3,3.7-7,6.1-11.7,3.1
			c-6-3.8-11.6-8.1-17.4-12.2C737.7,329.4,735.1,326.3,738.2,322.8z"/>
		<path class="st26" d="M142.3,368.8c28,0,56.1,0,84.1,0c0,0.3,0,0.6,0,0.8c-28,0-56,0-84,0C142.5,369.4,142.4,369.1,142.3,368.8z"
			/>
		<path class="st37" d="M144.3,321.3c20.5,0,41,0,61.5,0c0,0.3,0,0.6,0,0.8c-20.6,0-41.2,0-61.8,0
			C144.1,321.8,144.2,321.6,144.3,321.3z"/>
		<path class="st50" d="M800.5,321.1c15.7,0,31.5,0,47.2,0c0.4,0.3,0.6,0.7,0.4,1c-0.1,0.3-0.3,0.5-0.4,0.5c-13.1,0-26.3,0.1-39.4,0
			C805.7,322.7,802.7,323.6,800.5,321.1z"/>
		<path class="st51" d="M521,243.1c-12.9,0-25.8,0-38.7,0C495.2,240.5,508.1,240.4,521,243.1z"/>
		<path class="st31" d="M847.7,322.7c0-0.5,0-1,0-1.5c6.8,1.2,13.9,0.5,20.5,3.2C861.4,323.6,854.3,326.2,847.7,322.7z"/>
		<path class="st26" d="M276.6,280.1c-4.1,4.1-5.9,7.2-11.2,9C268.7,284.9,270.6,282,276.6,280.1z"/>
		<path class="st30" d="M328.3,304.1c-2.2,3.4-5.1,6.2-8.5,8.5C320.2,307.4,323.8,305.3,328.3,304.1z"/>
		<path class="st33" d="M885,341.1c2.6,5.8,2.6,11.5,0,17.3C885,352.6,885,346.9,885,341.1z"/>
		<path class="st35" d="M541.4,197.8c-5.6-0.1-11.2-0.3-16.9-0.4C530.2,195,535.8,194.4,541.4,197.8z"/>
		<path class="st39" d="M563.4,222.8c3.4,2,9-0.6,10.7,5C570.7,225.7,565.5,227.6,563.4,222.8z"/>
		<path class="st52" d="M534.7,219.3c3.9,0.1,7.8,0.3,11.7,0.4C542.4,221.9,538.5,222.4,534.7,219.3z"/>
		<path class="st31" d="M575.9,250.9c-3.2,1.2-5.1-0.9-9.4-1.8C571.3,247.9,573.5,248.7,575.9,250.9z"/>
		<path class="st53" d="M507.6,197.5c-3.4,0.1-6.7,0.2-10.1,0.3C500.7,194.7,504.1,195,507.6,197.5z"/>
		<path class="st39" d="M551.6,199.2c-2.8-0.1-5.6-0.2-8.4-0.3C546.1,196.8,548.9,196.6,551.6,199.2z"/>
		<path class="st31" d="M122.3,343.8c1.3,2.6,1.4,4.3,0.4,6.1C121.1,348.4,121.7,346.7,122.3,343.8z"/>
		<path class="st31" d="M482.3,187.5c2.7,0,5.5,0,8.2,0C487.8,189.8,485,189.8,482.3,187.5z"/>
		<path class="st54" d="M676.9,478.7c17.6,17.9,38.5,26.9,64,23.6c3.3-0.4,6.8-0.2,10.1,0.2c4.2,0.5,6.7,3.3,6.7,7.5
			c0,4.2-2.7,6.9-6.9,7.2c-4.8,0.4-9.6,0.5-14.4,0.1c-25.7-2-46,8.3-62.7,27.1c-13.3,15-26.6,29.9-39.9,44.8
			c-31.5,35-69.5,57.9-117.3,61.9c-56.5,4.7-104.1-14.1-142.8-55.3c-14.9-15.8-29.1-32.2-43.5-48.4c-12.7-14.2-27.1-25.4-46.3-29.2
			c-9.8-1.9-19.7-0.4-29.5-0.7c-5.3-0.2-11-0.5-10.9-7.5c0-6.8,5.3-7.5,10.8-7.7c11-0.4,22,1.1,32.9-1.3c6.7-1.5,12.7-4.3,18.8-7.3
			c1.7,0.1,3.4,0.2,5,0.9c14.9,6.8,27.7,2.8,40-6.9c21.1-16.7,41.9-15.7,62.6,2.4c1.6,7.5-0.3,15-0.2,22.6
			c0.8,65.7,71.9,104.4,126.7,75.7c33.5-17.5,51.7-51.6,47.5-88.7c-0.3-2.5-0.9-5,0.7-7.4c3.3-1.9,5.2,0.9,7.2,2.5
			c15.8,12,27.8,11.7,41.5-2.6C648.2,480.3,661,475.4,676.9,478.7z"/>
		<path class="st1" d="M412.6,490.3c-2.5,0-4.1-1.8-5.8-3.1c-17.6-13-38.6-12.6-56.1,3.2c-13.8,12.4-30.4,13.2-44.7,3.1
			c19.7-13.6,34-32.7,49.6-50.3c21.6-24.4,44.5-47.1,74.8-60.7c59.3-26.7,140.2-20.1,196.9,40.9c16.9,18.1,33.2,36.8,49.7,55.2
			c-3,2.6-6.5,1.3-9.7,1.2c-10-0.5-18,3.5-24.9,10.2c-2.2,2.1-4.3,4.4-6.6,6.5c-12.1,11.4-28.5,11.5-41,0.4
			c-1.9-1.7-3.8-3.3-5.7-4.9c-4.2-1.6-4.1-5.8-5.3-9.1c-12.3-32.7-35.2-52.8-69.7-59.2c-39.1-7.2-81.7,17.7-94.9,55.2
			C417.6,483.2,417.6,488.3,412.6,490.3z"/>
		<path class="st0" d="M408.8,841.3c2.7,0.9,5.4,1.4,7.6,3.6c14.8,14.7,30.7,27.7,49.7,36.8c4,1.9,7.2,5.1,4,10.8
			c-3.1,5.5-7,4.5-11.3,2.4c-21.6-10.3-39.4-25.5-55.7-42.7c-1.7-1.7-2.8-3.5-1.6-6C402.6,844,406.7,841.3,408.8,841.3z"/>
		<path class="st55" d="M412.6,490.3c6.4-20.9,17-39,34.9-52.3c50.1-37.2,122.8-12,139.6,48.6c0.5,1.9,1.3,3.7,1.9,5.5
			c4.8,30.4-2,57.5-23.6,80.2c-27.4,28.7-69.3,35.8-105.5,17.9c-34.5-17-54.2-55.6-48.1-94.1C412,494.2,412.3,492.3,412.6,490.3z"/>
		<path class="st56" d="M614.3,441.3c-0.1,9.7-6.8,16.7-16.2,16.8c-10,0.1-18-7.7-17.8-17.3c0.2-10.1,7.1-16.7,17.3-16.6
			C607.7,424.3,614.3,431.1,614.3,441.3z"/>
		<path class="st56" d="M397.7,454.9c-0.1,9.7-6.7,16.7-16.1,16.8c-10,0.1-18-7.6-17.8-17.3c0.2-9.5,7.8-16.8,17.4-16.7
			C391.2,437.9,397.7,444.7,397.7,454.9z"/>
		<path class="st57" d="M418,432.6c-0.1,5.4-2.7,8.4-8.2,8.6c-6.2,0.2-8.8-3.6-8.7-8.9c0.1-4.9,2.8-8.4,8.6-8.2
			C415.3,424.4,417.8,427.3,418,432.6z"/>
		<path class="st58" d="M612.5,464.6c5.5,0.3,8.6,2.9,8.5,8.3c-0.2,5.2-3.1,8.5-8.3,8.6c-5.7,0.1-8.6-3.5-8.6-9.1
			C604,466.9,607.5,464.8,612.5,464.6z"/>
		<path class="st59" d="M511,439.3c36.1,5.8,60.9,37,61,71.5c0.1,36-32.2,73.1-75.9,70.5c-38.2-2.2-69.2-36.5-66.5-75.2
			c2.3-34.3,24.7-58.8,61.1-66.8c0.4,0,0.8-0.1,1.2-0.1c6-0.1,12-0.1,18,0C510.2,439.2,510.6,439.2,511,439.3z"/>
		<path class="st60" d="M490.8,437.8c6.5-3.7,13.3-1.2,20-1.4c0.1,0,0.4,0.4,0.4,0.6c0,0.3-0.2,0.5-0.3,0.8
			C504.1,440.3,497.5,440.3,490.8,437.8z"/>
		<path class="st61" d="M490.8,437.8c6.7,0,13.4,0,20.1,0c0.1,0.5,0.1,0.9,0.1,1.4c0.1,0.3,0.1,0.6-0.1,0.8
			c-6.7,0.3-13.4,0.3-20.2,0c-0.2-0.3-0.2-0.5-0.1-0.8C490.6,438.8,490.7,438.3,490.8,437.8z"/>
		<path class="st62" d="M426.6,515.2c0-3.2,0-6.3,0-9.5c0.3,0,0.5,0,0.8,0c0,3.2,0,6.4,0,9.7C427.2,515.3,426.9,515.3,426.6,515.2z"
			/>
		<path class="st63" d="M493.9,539.6c-15.2-3.2-24.3-15-23.8-30.9c0.5-14.8,10.6-26.1,25.7-28.5c3.3,1.2,6.7,1.1,10,0
			c14.9,2.5,25.2,14.2,25.5,28.9c0.3,15.3-8.9,27.1-23.7,30.4C503.1,539.2,498.5,539.2,493.9,539.6z"/>
		<path class="st63" d="M439.7,510.3c0.2-6.2,0-12.6,8.2-13.5c6.2-0.7,9.9,3.8,10.6,12.3c1.2,15.6,7.3,28.1,22,35.4
			c5.3,2.6,9,6.6,6.3,12.8c-2.9,6.7-8.8,6.2-14.4,4.1c-9.8-3.7-17.1-10.6-22.7-19.4C443.5,532.3,440.5,521.5,439.7,510.3z"/>
		<path class="st64" d="M508.4,451.1c17.7,0.2,38,14.3,44.2,30.7c2.1,5.5,2.2,10.8-3.8,13.9c-6.3,3.3-10.8,0.2-13.9-5.4
			c-6.1-11.4-14.8-19.1-28.2-20.1c-6.6-0.5-11.9-2.7-11.3-10.6C496,451.5,502.1,451,508.4,451.1z"/>
		<path class="st65" d="M493.9,539.6c4.6-3,9.2-2.9,13.8,0C503.1,541.5,498.5,541.5,493.9,539.6z"/>
		<path class="st66" d="M490.7,440.1c6.7-1,13.4-1,20.2,0C504.2,441.9,497.4,441.8,490.7,440.1z"/>
		<path class="st67" d="M505.8,480.3c-3.4,2.3-6.7,2.4-10,0C499.1,480.2,502.5,480.2,505.8,480.3z"/>
	</g>
</g>
</svg>
