<?xml version="1.0"?>
<svg xmlns="http://www.w3.org/2000/svg" height="512px" viewBox="0 0 496 496" width="512px" class=""><g><path d="m385.367188 360c-8.175782 0-15.863282 3.183594-21.65625 8.96875l-7.375 7.382812-1.617188-6.449218c-2.640625-10.542969-12.0625-17.902344-22.925781-17.902344-10.496094 0-19.839844 7.046875-22.722657 17.144531l-11.101562 38.855469h-48.984375l-20.90625-5.214844c-2.398437-.601562-4.078125-2.761718-4.078125-5.234375 0-1.445312.558594-2.796875 1.574219-3.816406l29.449219-29.453125c5.792968-5.785156 8.976562-13.464844 8.976562-21.65625 0-16.882812-13.734375-30.625-30.632812-30.625-8.175782 0-15.863282 3.183594-21.65625 8.96875l-66.335938 66.34375c-3.03125 3.023438-7.046875 4.6875-11.320312 4.6875h-54.054688v-8c0-8.824219-7.175781-16-16-16h-48c-8.824219 0-16 7.175781-16 16v96c0 8.824219 7.175781 16 16 16h48c8.824219 0 16-7.175781 16-16h178.230469c4.320312 0 8.65625-.390625 12.882812-1.167969l70.023438-12.726562c9.648437-1.761719 18.40625-6.34375 25.351562-13.289063l40.527344-40.535156c5.800781-5.785156 8.984375-13.464844 8.984375-21.65625 0-16.882812-13.734375-30.625-30.632812-30.625zm-321.367188 120h-16v-24h-16v24h-16v-96h16v56h16v-56h16zm260.457031-106.472656c.925781-3.253906 3.941407-5.527344 7.335938-5.527344 3.503906 0 6.550781 2.382812 7.40625 5.785156l3.945312 15.765625-16.113281 16.113281c-1.511719 1.503907-3.527344 2.335938-5.664062 2.335938h-6.765626zm71.253907 27.441406-40.535157 40.535156c-4.632812 4.625-10.480469 7.6875-16.902343 8.855469l-70.035157 12.738281c-3.277343.597656-6.644531.902344-10.007812.902344h-178.230469v-56h54.054688c8.546874 0 16.578124-3.328125 22.632812-9.375l66.335938-66.34375c2.769531-2.761719 6.441406-4.28125 10.34375-4.28125 8.074218 0 14.632812 6.558594 14.632812 14.625 0 3.847656-1.558594 7.613281-4.289062 10.34375l-29.445313 29.445312c-4.042969 4.042969-6.265625 9.417969-6.265625 15.128907 0 9.832031 6.664062 18.367187 16.199219 20.753906l21.855469 5.464844 75.3125.238281c6.410156 0 12.441406-2.496094 16.976562-7.03125l36.679688-36.6875c2.769531-2.761719 6.441406-4.28125 10.34375-4.28125 8.074218 0 14.632812 6.558594 14.632812 14.625 0 3.855469-1.558594 7.613281-4.289062 10.34375zm0 0" data-original="#000000" class="active-path" fill="#000000"/><path d="m480 48h-16c-8.824219 0-16 7.175781-16 16h-27.519531c-2.234375 0-4.449219-.3125-6.59375-.929688l-47.367188-13.519531c-3.574219-1.03125-7.28125-1.550781-11-1.550781h-19.519531v-48h-336v208h248v56h-27.3125l59.3125 59.3125 59.3125-59.3125h-27.3125v-56h24v-24.984375l7.679688 3.082031c21.671874 8.664063 46.425781 7.796875 68.136718-3.058594 9.191406-4.605468 19.503906-7.039062 29.808594-7.039062h6.375c0 8.824219 7.175781 16 16 16h16c8.824219 0 16-7.175781 16-16v-112c0-8.824219-7.175781-16-16-16zm-179.3125 232-20.6875 20.6875-20.6875-20.6875h4.6875v-72h32v72zm19.3125-88h-304v-176h304v104h-56c-3.414062 0-6.679688.558594-9.855469 1.375 1.160157-5.695312 1.855469-11.480469 1.855469-17.375 0-48.519531-39.480469-88-88-88s-88 39.480469-88 88 39.480469 88 88 88c22.039062 0 42.960938-8.296875 58.976562-22.777344 2.894532 4.089844 7.640626 6.777344 13.023438 6.777344h65.625c4.863281 0 9.671875.519531 14.375 1.558594zm-152-16c-39.695312 0-72-32.296875-72-72s32.304688-72 72-72 72 32.296875 72 72c0 10.9375-2.488281 21.511719-7.34375 31.457031-2.359375 3.007813-4.351562 6.277344-5.785156 9.886719-13.511719 19.183594-35.429688 30.65625-58.871094 30.65625zm273.625-16c-12.777344 0-25.5625 3.015625-37.449219 8.960938-16.800781 8.414062-37.085937 9.261718-54.550781 2.269531l-13.3125-5.328125c-9.808594-3.917969-20.128906-5.902344-30.6875-5.902344h-65.625c0-13.230469 10.769531-24 24-24h72v-72h19.519531c2.234375 0 4.449219.3125 6.59375.929688l47.367188 13.519531c3.574219 1.03125 7.28125 1.550781 11 1.550781h27.519531v80zm22.375 16v-112h16l.007812 112zm0 0" data-original="#000000" class="active-path" fill="#000000"/><path d="m160 80h16c4.40625 0 8 3.585938 8 8h16c0-13.230469-10.769531-24-24-24v-16h-16v16c-13.230469 0-24 10.769531-24 24s10.769531 24 24 24h16c4.40625 0 8 3.585938 8 8s-3.59375 8-8 8h-16c-4.40625 0-8-3.585938-8-8h-16c0 13.230469 10.769531 24 24 24v16h16v-16c13.230469 0 24-10.769531 24-24s-10.769531-24-24-24h-16c-4.40625 0-8-3.585938-8-8s3.59375-8 8-8zm0 0" data-original="#000000" class="active-path" fill="#000000"/><path d="m288 64h16v-32h-32v16h16zm0 0" data-original="#000000" class="active-path" fill="#000000"/><path d="m32 64h16v-16h16v-16h-32zm0 0" data-original="#000000" class="active-path" fill="#000000"/><path d="m48 144h-16v32h32v-16h-16zm0 0" data-original="#000000" class="active-path" fill="#000000"/><path d="m400 272h16v56h-16zm0 0" data-original="#000000" class="active-path" fill="#000000"/><path d="m400 240h16v16h-16zm0 0" data-original="#000000" class="active-path" fill="#000000"/><path d="m400 208h16v16h-16zm0 0" data-original="#000000" class="active-path" fill="#000000"/><path d="m368 272h16v64h-16zm0 0" data-original="#000000" class="active-path" fill="#000000"/><path d="m368 240h16v16h-16zm0 0" data-original="#000000" class="active-path" fill="#000000"/></g> </svg>
