<?xml version="1.0"?>
<svg xmlns="http://www.w3.org/2000/svg" height="512px" viewBox="0 0 64 64" width="512px"><g><g id="Pickup_Truck" data-name="Pickup Truck"><path d="m55 27h-3.485l-8.505-11.907a5.014 5.014 0 0 0 -4.069-2.093h-8.941a2 2 0 0 0 -2 2v12h-25a1 1 0 0 0 -1 1v14a3 3 0 0 0 3 3h3.08a6.991 6.991 0 0 0 13.84 0h20.16a6.991 6.991 0 0 0 13.84 0h3.08a3 3 0 0 0 3-3v-8a7.008 7.008 0 0 0 -7-7zm5 7v1h-4v-2h3.9a5 5 0 0 1 .1 1zm-18.617-17.744 7.674 10.744h-13.057v-12h2.941a3.01 3.01 0 0 1 2.442 1.256zm-37.383 25.744v-9h3v-2h-3v-2h25a1 1 0 0 0 1-1v-13h4v28h-12.08a6.991 6.991 0 0 0 -13.84 0h-3.08a1 1 0 0 1 -1-1zm11 7a5 5 0 1 1 5-5 5.006 5.006 0 0 1 -5 5zm34 0a5 5 0 1 1 5-5 5.006 5.006 0 0 1 -5 5zm10-6h-3.08a6.991 6.991 0 0 0 -13.84 0h-6.08v-14h19a4.977 4.977 0 0 1 3.974 2h-2.974a2 2 0 0 0 -2 2v2a2 2 0 0 0 2 2h4v2h-3v2h3v1a1 1 0 0 1 -1 1z" data-original="#000000" class="active-path" fill="#000000"/><path d="m38 31h4v2h-4z" data-original="#000000" class="active-path" fill="#000000"/><path d="m14 43h2v2h-2z" data-original="#000000" class="active-path" fill="#000000"/><path d="m48 43h2v2h-2z" data-original="#000000" class="active-path" fill="#000000"/></g></g> </svg>
