<?xml version="1.0"?>
<svg xmlns="http://www.w3.org/2000/svg" height="512px" viewBox="0 -8 480 480" width="512px"><g><path d="m49.054688 340c-3.382813 5.953125-33.054688 58.609375-33.054688 84 0 22.089844 17.910156 40 40 40s40-17.910156 40-40c0-25.390625-29.671875-78.046875-33.054688-84-1.542968-2.332031-4.148437-3.738281-6.945312-3.738281s-5.402344 1.40625-6.945312 3.738281zm6.945312 108c-13.253906 0-24-10.746094-24-24 0-14.144531 13.902344-43.910156 24-63.246094 10.097656 19.335938 24 49.101563 24 63.246094 0 13.253906-10.746094 24-24 24zm0 0" data-original="#000000" class="active-path" fill="#000000"/><path d="m472 96h-48c-4.417969 0-8 3.582031-8 8v24h-107.511719l-11.894531-42.167969c-.972656-3.449219-4.121094-5.832031-7.707031-5.832031h-24.886719v-32h56c13.253906 0 24-10.746094 24-24s-10.746094-24-24-24h-160c-13.253906 0-24 10.746094-24 24s10.746094 24 24 24h56v32h-24.886719c-3.585937 0-6.734375 2.382812-7.707031 5.832031l-11.894531 42.167969h-67.511719c-57.410156.066406-103.9335938 46.589844-104 104v64c0 4.417969 3.582031 8 8 8h96c4.417969 0 8-3.582031 8-8v-32c0-13.253906 10.746094-24 24-24h9.375c7.082031 36.296875 42.402344 64 84.847656 64h19.554688c42.460937 0 77.765625-27.703125 84.847656-64h81.375v24c0 4.417969 3.582031 8 8 8h48c4.417969 0 8-3.582031 8-8v-160c0-4.417969-3.582031-8-8-8zm-320-72c0-4.417969 3.582031-8 8-8h160c4.417969 0 8 3.582031 8 8s-3.582031 8-8 8h-160c-4.417969 0-8-3.582031-8-8zm80 24h16v32h-16zm-136 216v24h-80v-56c.058594-48.578125 39.421875-87.941406 88-88h63l-22.558594 80h-8.441406c-22.082031.027344-39.972656 17.917969-40 40zm153.777344 24h-19.554688c-38.3125 0-69.558594-26.9375-70.214844-60.265625l37.160157-131.734375h85.664062l37.167969 131.734375c-.664062 33.328125-31.910156 60.265625-70.222656 60.265625zm85.78125-64-22.558594-80h103v80zm128.441406 32h-32v-144h32zm0 0" data-original="#000000" class="active-path" fill="#000000"/></g> </svg>
